<?xml version="1.0" encoding="UTF-8"?>
<svg version="1.1" xmlns="http://www.w3.org/2000/svg" width="100" height="100">
<path d="M0 0 C33 0 66 0 100 0 C100 33 100 66 100 100 C67 100 34 100 0 100 C0 67 0 34 0 0 Z " fill="#000000" transform="translate(0,0)"/>
<path d="M0 0 C3.5 0.375 3.5 0.375 6.5 2.375 C6.8984375 4.43359375 6.8984375 4.43359375 6.875 6.8125 C6.88273437 7.59496094 6.89046875 8.37742187 6.8984375 9.18359375 C6.40987926 11.87066405 5.66743835 12.75324613 3.5 14.375 C-0.13031776 14.91568562 -1.82214079 14.83879841 -4.875 12.75 C-6.9753727 9.68022452 -7.03293835 8.02943439 -6.5 4.375 C-4.86252612 0.71476426 -4.04017783 0.4328762 0 0 Z " fill="#019965" transform="translate(67.5,43.625)"/>
<path d="M0 0 C1.670625 0.061875 1.670625 0.061875 3.375 0.125 C3.705 1.445 4.035 2.765 4.375 4.125 C2.395 4.125 0.415 4.125 -1.625 4.125 C-0.655625 4.516875 0.31375 4.90875 1.3125 5.3125 C4.375 7.125 4.375 7.125 5.25 9.8125 C5.311875 10.9571875 5.311875 10.9571875 5.375 12.125 C1.91837669 14.42941554 0.42642119 14.38360135 -3.625 14.125 C-4.285 13.795 -4.945 13.465 -5.625 13.125 C-5.625 12.135 -5.625 11.145 -5.625 10.125 C-3.315 10.455 -1.005 10.785 1.375 11.125 C1.045 10.465 0.715 9.805 0.375 9.125 C-0.45 8.856875 -1.275 8.58875 -2.125 8.3125 C-4.625 7.125 -4.625 7.125 -5.5625 4.625 C-5.583125 3.8 -5.60375 2.975 -5.625 2.125 C-3.625 0.125 -3.625 0.125 0 0 Z " fill="#019865" transform="translate(82.625,43.875)"/>
<path d="M0 0 C6.93359375 -0.09765625 6.93359375 -0.09765625 9 0 C10 1 10 1 10.09765625 3.28515625 C10.08605469 4.20167969 10.07445312 5.11820313 10.0625 6.0625 C10.05347656 6.98160156 10.04445313 7.90070312 10.03515625 8.84765625 C10.02355469 9.55792969 10.01195312 10.26820312 10 11 C9.01 11 8.02 11 7 11 C7 8.36 7 5.72 7 3 C6.01 3.33 5.02 3.66 4 4 C3.67 6.31 3.34 8.62 3 11 C2.01 11 1.02 11 0 11 C0 7.37 0 3.74 0 0 Z " fill="#D6D6B6" transform="translate(19,47)"/>
<path d="M0 0 C0.99 0 1.98 0 3 0 C3 2.64 3 5.28 3 8 C4.32 8 5.64 8 7 8 C7 5.36 7 2.72 7 0 C7.99 0 8.98 0 10 0 C10 3.63 10 7.26 10 11 C7.03 11 4.06 11 1 11 C-0.20272819 8.59454362 -0.10071472 7.05003047 -0.0625 4.375 C-0.05347656 3.55773438 -0.04445312 2.74046875 -0.03515625 1.8984375 C-0.02355469 1.27195313 -0.01195312 0.64546875 0 0 Z " fill="#E2E1BD" transform="translate(42,47)"/>
<path d="M0 0 C1.2375 0.1546875 1.2375 0.1546875 2.5 0.3125 C3.16 1.3025 3.82 2.2925 4.5 3.3125 C2.85 3.6425 1.2 3.9725 -0.5 4.3125 C1.15 4.6425 2.8 4.9725 4.5 5.3125 C4.542721 6.97861905 4.54063832 8.64632885 4.5 10.3125 C3.5 11.3125 3.5 11.3125 0.5625 11.4375 C-2.5 11.3125 -2.5 11.3125 -4.5 10.3125 C-4.5 9.6525 -4.5 8.9925 -4.5 8.3125 C-1.53 8.8075 -1.53 8.8075 1.5 9.3125 C1.5 8.6525 1.5 7.9925 1.5 7.3125 C-0.15 6.9825 -1.8 6.6525 -3.5 6.3125 C-4.125 4.4375 -4.125 4.4375 -4.5 2.3125 C-2.5 0.3125 -2.5 0.3125 0 0 Z " fill="#E6E5C4" transform="translate(35.5,46.6875)"/>
<path d="M0 0 C1.32 0 2.64 0 4 0 C4 4.62 4 9.24 4 14 C2.68 14 1.36 14 0 14 C0 9.38 0 4.76 0 0 Z " fill="#DBDBB7" transform="translate(13,44)"/>
<path d="M0 0 C1.67542976 0.28604898 3.34385343 0.61781233 5 1 C5 2.98 5 4.96 5 7 C3.34385343 7.38218767 1.67542976 7.71395102 0 8 C-1 7 -1 7 -1.125 4 C-1 1 -1 1 0 0 Z " fill="#000E09" transform="translate(66,47)"/>
<path d="M0 0 C0 0.99 0 1.98 0 3 C-0.99 3 -1.98 3 -3 3 C-3 5.64 -3 8.28 -3 11 C-3.99 11 -4.98 11 -6 11 C-6 7.7 -6 4.4 -6 1 C-2 0 -2 0 0 0 Z " fill="#E7E7C2" transform="translate(60,47)"/>
<path d="M0 0 C0.33 0.66 0.66 1.32 1 2 C2.32148827 2.37756808 3.65835921 2.7018576 5 3 C6.6744239 3.6469365 8.34302621 4.30959426 10 5 C10 5.66 10 6.32 10 7 C7.69 6.67 5.38 6.34 3 6 C2.67 6.66 2.34 7.32 2 8 C0 6 0 6 -0.125 2.875 C-0.08375 1.92625 -0.0425 0.9775 0 0 Z " fill="#002015" transform="translate(74,48)"/>
<path d="M0 0 C0 3.3 0 6.6 0 10 C-0.99 10 -1.98 10 -3 10 C-3.33 7.03 -3.66 4.06 -4 1 C-1 0 -1 0 0 0 Z " fill="#E3E3BF" transform="translate(29,48)"/>
<path d="M0 0 C1.2684375 0.12375 1.2684375 0.12375 2.5625 0.25 C3.2225 1.24 3.8825 2.23 4.5625 3.25 C2.891875 3.4665625 2.891875 3.4665625 1.1875 3.6875 C-2.25892047 4.03372035 -2.25892047 4.03372035 -4.4375 5.25 C-3.32911727 0.34144793 -3.32911727 0.34144793 0 0 Z " fill="#DCDCBB" transform="translate(35.4375,46.75)"/>
</svg>
