<svg width="50" height="18" viewBox="0 0 50 18" fill="none" xmlns="http://www.w3.org/2000/svg">
<path d="M49 8.5H1" stroke="black" stroke-width="1.32597" stroke-linecap="round" stroke-dasharray="3.54 3.54"/>
<g filter="url(#filter0_d_22_627)">
<circle cx="25" cy="8.5" r="8" fill="white"/>
<circle cx="25" cy="8.5" r="7.65217" stroke="black" stroke-width="0.695651"/>
</g>
<path d="M23.0341 6.5689C24.1158 5.50666 25.8637 5.50154 26.9524 6.55182L26.2358 7.25372C26.1158 7.37156 26.0811 7.54746 26.1454 7.70116C26.2098 7.85486 26.3628 7.95391 26.5315 7.95391H28.6098H28.7576C28.9889 7.95391 29.175 7.77118 29.175 7.54405V5.35809C29.175 5.19243 29.0741 5.04215 28.9176 4.97896C28.7611 4.91577 28.5819 4.94993 28.4619 5.06776L27.7385 5.7782C26.215 4.30097 23.7611 4.30609 22.2463 5.79528C21.8219 6.21198 21.5158 6.70211 21.328 7.2264C21.2254 7.5116 21.3785 7.82241 21.6671 7.92317C21.9558 8.02393 22.2741 7.87365 22.3767 7.59016C22.5106 7.21786 22.728 6.86776 23.0341 6.5689ZM20.8271 9.45676V9.58655V9.59851V11.6427C20.8271 11.8084 20.928 11.9587 21.0845 12.0218C21.2411 12.085 21.4202 12.0509 21.5402 11.933L22.2637 11.2226C23.7871 12.6998 26.2411 12.6947 27.7558 11.2055C28.1802 10.7888 28.488 10.2987 28.6758 9.77612C28.7785 9.49092 28.6254 9.1801 28.3367 9.07934C28.048 8.97858 27.7298 9.12887 27.6271 9.41236C27.4932 9.78465 27.2758 10.1348 26.9698 10.4336C25.888 11.4959 24.1402 11.501 23.0515 10.4507L23.7663 9.74708C23.8863 9.62925 23.9211 9.45335 23.8567 9.29964C23.7924 9.14594 23.6393 9.04689 23.4706 9.04689H21.3906H21.3785H21.2445C21.0132 9.04689 20.8271 9.22963 20.8271 9.45676Z" fill="black"/>
<defs>
<filter id="filter0_d_22_627" x="16.3043" y="0.5" width="16.6957" height="16.6957" filterUnits="userSpaceOnUse" color-interpolation-filters="sRGB">
<feFlood flood-opacity="0" result="BackgroundImageFix"/>
<feColorMatrix in="SourceAlpha" type="matrix" values="0 0 0 0 0 0 0 0 0 0 0 0 0 0 0 0 0 0 127 0" result="hardAlpha"/>
<feOffset dx="-0.695651" dy="0.695651"/>
<feComposite in2="hardAlpha" operator="out"/>
<feColorMatrix type="matrix" values="0 0 0 0 0 0 0 0 0 0 0 0 0 0 0 0 0 0 1 0"/>
<feBlend mode="normal" in2="BackgroundImageFix" result="effect1_dropShadow_22_627"/>
<feBlend mode="normal" in="SourceGraphic" in2="effect1_dropShadow_22_627" result="shape"/>
</filter>
</defs>
</svg>
