<?xml version="1.0" encoding="UTF-8"?>
<svg xmlns="http://www.w3.org/2000/svg" xmlns:xlink="http://www.w3.org/1999/xlink" width="96px" height="96px" viewBox="0 0 96 96" version="1.1">
<defs>
<clipPath id="clip1">
  <path d="M 11.292969 0 L 84.707031 0 C 90.945312 0 96 5.054688 96 11.292969 L 96 84.707031 C 96 90.945312 90.945312 96 84.707031 96 L 11.292969 96 C 5.054688 96 0 90.945312 0 84.707031 L 0 11.292969 C 0 5.054688 5.054688 0 11.292969 0 Z M 11.292969 0 "/>
</clipPath>
<clipPath id="clip2">
  <path d="M 19 26 L 48 26 L 48 45 L 19 45 Z M 19 26 "/>
</clipPath>
<clipPath id="clip3">
  <path d="M 11.292969 0 L 84.707031 0 C 90.945312 0 96 5.054688 96 11.292969 L 96 84.707031 C 96 90.945312 90.945312 96 84.707031 96 L 11.292969 96 C 5.054688 96 0 90.945312 0 84.707031 L 0 11.292969 C 0 5.054688 5.054688 0 11.292969 0 Z M 11.292969 0 "/>
</clipPath>
<clipPath id="clip4">
  <path d="M 19 26 L 77 26 L 77 70 L 19 70 Z M 19 26 "/>
</clipPath>
<clipPath id="clip5">
  <path d="M 11.292969 0 L 84.707031 0 C 90.945312 0 96 5.054688 96 11.292969 L 96 84.707031 C 96 90.945312 90.945312 96 84.707031 96 L 11.292969 96 C 5.054688 96 0 90.945312 0 84.707031 L 0 11.292969 C 0 5.054688 5.054688 0 11.292969 0 Z M 11.292969 0 "/>
</clipPath>
</defs>
<g id="surface1">
<g clip-path="url(#clip1)" clip-rule="nonzero">
<path style=" stroke:none;fill-rule:nonzero;fill:rgb(0%,0%,0%);fill-opacity:1;" d="M 96 0 L 0 0 L 0 96 L 96 96 Z M 19.25 35.746094 C 19.25 30.5 23.507812 26.246094 28.75 26.246094 L 47.039062 26.246094 C 47.308594 26.246094 47.554688 26.40625 47.667969 26.652344 C 47.78125 26.902344 47.730469 27.191406 47.546875 27.394531 L 43.539062 31.75 C 42.839844 32.507812 41.859375 32.945312 40.828125 32.945312 L 28.800781 32.945312 C 27.226562 32.945312 25.949219 34.222656 25.949219 35.796875 L 25.949219 42.980469 C 25.949219 43.90625 25.199219 44.652344 24.273438 44.652344 L 20.929688 44.652344 C 20.003906 44.652344 19.257812 43.90625 19.257812 42.980469 L 19.257812 35.746094 Z M 76.152344 60.253906 C 76.152344 65.5 71.894531 69.753906 66.648438 69.753906 L 58.878906 69.753906 C 53.632812 69.753906 49.375 65.5 49.375 60.253906 L 49.375 46.652344 C 49.375 45.726562 49.722656 44.835938 50.351562 44.152344 L 54.882812 39.234375 C 55.074219 39.027344 55.371094 38.957031 55.636719 39.054688 C 55.898438 39.164062 56.074219 39.410156 56.074219 39.691406 L 56.074219 60.210938 C 56.074219 61.785156 57.351562 63.0625 58.925781 63.0625 L 66.605469 63.0625 C 68.179688 63.0625 69.457031 61.785156 69.457031 60.210938 L 69.457031 35.796875 C 69.457031 34.222656 68.179688 32.945312 66.605469 32.945312 L 57.675781 32.945312 C 56.652344 32.945312 55.679688 33.375 54.980469 34.121094 L 28.347656 63.0625 L 44.351562 63.0625 C 45.273438 63.0625 46.023438 63.8125 46.023438 64.738281 L 46.023438 68.082031 C 46.023438 69.007812 45.273438 69.753906 44.351562 69.753906 L 22.785156 69.753906 C 20.832031 69.753906 19.242188 68.167969 19.242188 66.210938 L 19.242188 64.441406 C 19.242188 63.550781 19.574219 62.695312 20.179688 62.039062 L 50.039062 29.605469 C 52.015625 27.457031 54.789062 26.246094 57.707031 26.246094 L 66.640625 26.246094 C 71.886719 26.246094 76.144531 30.5 76.144531 35.746094 L 76.144531 60.253906 Z M 76.152344 60.253906 "/>
</g>
<g clip-path="url(#clip2)" clip-rule="nonzero">
<g clip-path="url(#clip3)" clip-rule="nonzero">
<path style=" stroke:none;fill-rule:nonzero;fill:rgb(100%,100%,100%);fill-opacity:1;" d="M 19.25 35.746094 C 19.25 30.5 23.507812 26.246094 28.75 26.246094 L 47.039062 26.246094 C 47.308594 26.246094 47.554688 26.40625 47.667969 26.652344 C 47.78125 26.902344 47.730469 27.191406 47.546875 27.394531 L 43.539062 31.75 C 42.839844 32.507812 41.859375 32.945312 40.828125 32.945312 L 28.800781 32.945312 C 27.226562 32.945312 25.949219 34.222656 25.949219 35.796875 L 25.949219 42.980469 C 25.949219 43.90625 25.199219 44.652344 24.273438 44.652344 L 20.929688 44.652344 C 20.003906 44.652344 19.257812 43.90625 19.257812 42.980469 L 19.257812 35.746094 Z M 19.25 35.746094 "/>
</g>
</g>
<g clip-path="url(#clip4)" clip-rule="nonzero">
<g clip-path="url(#clip5)" clip-rule="nonzero">
<path style=" stroke:none;fill-rule:nonzero;fill:rgb(100%,100%,100%);fill-opacity:1;" d="M 76.152344 60.253906 C 76.152344 65.5 71.894531 69.753906 66.648438 69.753906 L 58.878906 69.753906 C 53.632812 69.753906 49.375 65.5 49.375 60.253906 L 49.375 46.652344 C 49.375 45.726562 49.722656 44.835938 50.351562 44.152344 L 54.882812 39.234375 C 55.074219 39.027344 55.371094 38.957031 55.636719 39.054688 C 55.898438 39.164062 56.074219 39.410156 56.074219 39.691406 L 56.074219 60.210938 C 56.074219 61.785156 57.351562 63.0625 58.925781 63.0625 L 66.605469 63.0625 C 68.179688 63.0625 69.457031 61.785156 69.457031 60.210938 L 69.457031 35.796875 C 69.457031 34.222656 68.179688 32.945312 66.605469 32.945312 L 57.675781 32.945312 C 56.652344 32.945312 55.679688 33.375 54.980469 34.121094 L 28.347656 63.0625 L 44.351562 63.0625 C 45.273438 63.0625 46.023438 63.8125 46.023438 64.738281 L 46.023438 68.082031 C 46.023438 69.007812 45.273438 69.753906 44.351562 69.753906 L 22.785156 69.753906 C 20.832031 69.753906 19.242188 68.167969 19.242188 66.210938 L 19.242188 64.441406 C 19.242188 63.550781 19.574219 62.695312 20.179688 62.039062 L 50.039062 29.605469 C 52.015625 27.457031 54.789062 26.246094 57.707031 26.246094 L 66.640625 26.246094 C 71.886719 26.246094 76.144531 30.5 76.144531 35.746094 L 76.144531 60.253906 Z M 76.152344 60.253906 "/>
</g>
</g>
</g>
</svg>
