<svg
  xmlns="http://www.w3.org/2000/svg"
  width="64"
  height="64"
  viewBox="0 0 127 127"
  fill="none"
  role="img"
>
  <title>Discord</title>
  <path
    fill="#5865F2"
    d="M107.7 26.4A104.6 104.6 0 0 0 81.6 18a0.4 0.4 0 0 0-0.4 0.2 73 73 0 0 0-3.2 6.6 96.6 96.6 0 0 0-29 0A66.8 66.8 0 0 0 45.6 18.2a0.4 0.4 0 0 0-0.4-0.2 104.2 104.2 0 0 0-26.1 8.4 0.4 0.4 0 0 0-0.2 0.2C2.3 51.4-2.2 75.7 0 99.7a0.4 0.4 0 0 0 0.2 0.3 105.2 105.2 0 0 0 31.6 16 0.4 0.4 0 0 0 0.5-0.1 75.6 75.6 0 0 0 6.5-10.6 0.4 0.4 0 0 0-0.2-0.5 69.4 69.4 0 0 1-9.9-4.7 0.4 0.4 0 0 1 0-0.7 54.6 54.6 0 0 0 2-1.6 0.4 0.4 0 0 1 0.4-0.1 75 75 0 0 0 63.9 0 0.4 0.4 0 0 1 0.4 0.1c0.6 0.6 1.3 1.1 2 1.6a0.4 0.4 0 0 1 0 0.7 65.2 65.2 0 0 1-9.9 4.7 0.4 0.4 0 0 0-0.2 0.5 84.8 84.8 0 0 0 6.5 10.6 0.4 0.4 0 0 0 0.5 0.1 104.8 104.8 0 0 0 31.6-16 0.4 0.4 0 0 0 0.2-0.3c2.7-27.8-4.5-51.9-18.9-73.1a0.4 0.4 0 0 0-0.2-0.2zM42.5 85a12.3 12.3 0 0 1-11.5-12.9c0-7.1 5-12.9 11.5-12.9 6.6 0 11.7 5.8 11.6 12.9 0 7-5.1 12.9-11.6 12.9zm42.8 0a12.3 12.3 0 0 1-11.5-12.9c0-7.1 5-12.9 11.5-12.9 6.6 0 11.6 5.8 11.5 12.9 0 7-5 12.9-11.5 12.9z"
  />
</svg>
