<?xml version="1.0" encoding="UTF-8"?>
<svg id="Camada_2" data-name="Camada 2" xmlns="http://www.w3.org/2000/svg" viewBox="0 0 122 23.18">
  <g id="HEADER">
    <g>
      <rect x="49.1" y=".34" width="4.31" height="22.5"/>
      <rect x="57.01" y=".34" width="4.31" height="22.5"/>
      <polygon points="81.23 12.04 81.23 16.33 76.93 16.33 76.93 12.04 71.06 .34 64.92 .34 64.92 22.84 69.23 22.84 69.23 6.28 77.52 22.84 80.63 22.84 88.93 6.28 88.93 22.84 93.24 22.84 93.24 .34 87.08 .34 81.23 12.04"/>
      <g>
        <path d="M11.59,0h-2.98v4.3h-4.3v7.28h4.3v-7.28h2.98c4.02,0,7.28,3.27,7.28,7.28s-3.27,7.28-7.28,7.28-7.28-3.27-7.28-7.28H0c0,6.39,5.2,11.59,11.59,11.59s11.59-5.2,11.59-11.59S17.98,0,11.59,0Z"/>
        <rect x="0" y="0" width="4.31" height="4.3"/>
      </g>
      <path d="M110.73.34h-3.13l-11.25,22.5h4.82l1.1-2.2h13.82l1.1,2.2h4.82L110.73.34ZM104.42,16.33l2.6-5.2v-4.29h4.3v4.29l2.6,5.2h-9.51Z"/>
      <polygon points="24.86 4.39 33.03 4.39 33.03 22.84 37.33 22.84 37.33 4.39 45.5 4.39 45.5 .34 24.86 .34 24.86 4.39"/>
    </g>
  </g>
</svg>