<svg width="136" height="136" viewBox="0 0 136 136" fill="none" xmlns="http://www.w3.org/2000/svg">
<rect width="136" height="136" fill="#D9F3EE"/>
<path d="M75.9072 46.0928C76.7667 46.9522 77.2499 48.1176 77.25 49.333V86.667C77.2499 87.8824 76.7667 89.0478 75.9072 89.9072C75.0478 90.7667 73.8824 91.2499 72.667 91.25H35.333C34.1176 91.2499 32.9522 90.7667 32.0928 89.9072C31.2333 89.0478 30.7501 87.8825 30.75 86.667V50.2044C30.75 49.6487 30.5188 49.1181 30.1119 48.7397L22.9309 42.0629C22.2912 41.4681 21.25 41.9218 21.25 42.7953V86.667C21.2501 90.402 22.7339 93.9839 25.375 96.625C28.0161 99.2661 31.598 100.75 35.333 100.75H72.667C76.402 100.75 79.9839 99.2661 82.625 96.625C85.2661 93.9839 86.7499 90.402 86.75 86.667V49.333C86.7499 45.598 85.2661 42.0161 82.625 39.375C79.9839 36.7339 76.402 35.2501 72.667 35.25H27.157C26.2342 35.25 25.8038 36.3934 26.4977 37.0018L34.7671 44.2537C35.1319 44.5736 35.6005 44.75 36.0857 44.75H72.667C73.8825 44.7501 75.0478 45.2333 75.9072 46.0928Z" fill="#12A594"/>
<path d="M104.757 42.8125C106.259 42.8802 107.723 43.3068 109.024 44.0547L109.283 44.208L109.536 44.3701C110.704 45.1443 111.685 46.1699 112.406 47.3711L112.557 47.6309L112.699 47.8955C113.389 49.2291 113.749 50.7108 113.75 52.2149V83.7852C113.749 85.3894 113.338 86.9672 112.557 88.3682C111.775 89.7692 110.648 90.9477 109.283 91.791C107.918 92.6344 106.36 93.1143 104.757 93.1865C103.154 93.2587 101.559 92.9203 100.124 92.2031L92.1058 88.1953C91.4281 87.8566 91 87.164 91 86.4063V78.6384C91 77.8951 91.7823 77.4116 92.4472 77.744L104.25 83.6445V52.3535L92.4471 58.2532C91.7822 58.5856 91 58.1021 91 57.3588V49.5926C91 48.835 91.4281 48.1425 92.1057 47.8037L100.123 43.7959C101.558 43.0788 103.154 42.7404 104.757 42.8125Z" fill="#12A594"/>
</svg>
