<?xml version="1.0" encoding="UTF-8"?>
<svg width="80px" height="80px" viewBox="0 0 80 80" version="1.1" xmlns="http://www.w3.org/2000/svg" xmlns:xlink="http://www.w3.org/1999/xlink">
    <title>Icon-Architecture/64/Arch_Amazon-Q_64</title>
    <g id="Icon-Architecture/64/Arch_Amazon-Q_64" stroke="none" stroke-width="1" fill="none" fill-rule="evenodd">
        <g id="Icon-Architecture-BG/64/Machine-Learning" fill="#01A88D">
            <rect id="Rectangle" x="0" y="0" width="80" height="80"></rect>
        </g>
        <g id="Icon-Service/64/Amazon-Q_64" transform="translate(16.000000, 12.350000)" fill="#FFFFFF">
            <path d="M27,25.767 L27,29.532 L24,31.032 L21,29.532 L21,25.767 L24,24.26 L27,25.767 Z M43.968,41.715 L25.968,51.889 C24.755,52.576 23.245,52.576 22.032,51.889 L4.032,41.715 C2.778,41.007 2,39.672 2,38.233 L2,16.96 C2,15.574 2.736,14.265 3.92,13.543 L21.921,2.587 C22.562,2.197 23.281,2.001 24,2.001 C24.719,2.001 25.438,2.197 26.08,2.587 L44.08,13.543 C45.264,14.265 46,15.574 46,16.96 L46,38.233 C46,38.481 45.969,38.725 45.924,38.964 L29,29.562 L29,25.15 C29,24.772 28.787,24.427 28.449,24.257 L24.449,22.247 C24.166,22.106 23.834,22.106 23.551,22.247 L19.551,24.257 C19.213,24.427 19,24.772 19,25.15 L19,30.15 C19,30.529 19.214,30.875 19.553,31.045 L23.553,33.045 C23.693,33.115 23.847,33.15 24,33.15 C24.153,33.15 24.307,33.115 24.447,33.045 L27.976,31.281 L45.075,40.78 C44.769,41.15 44.399,41.472 43.968,41.715 L43.968,41.715 Z M45.119,11.835 L27.12,0.879 C25.194,-0.293 22.805,-0.293 20.881,0.879 L2.881,11.835 C1.104,12.917 0,14.881 0,16.96 L0,38.233 C0,40.392 1.168,42.393 3.048,43.456 L21.048,53.63 C21.959,54.145 22.979,54.402 24,54.402 C25.021,54.402 26.042,54.145 26.952,53.63 L44.952,43.456 C46.832,42.393 48,40.392 48,38.233 L48,16.96 C48,14.881 46.896,12.917 45.119,11.835 L45.119,11.835 Z" id="Fill-1"></path>
        </g>
    </g>
</svg>