<svg fill="none" height="136" viewBox="0 0 136 136" width="136" xmlns="http://www.w3.org/2000/svg" xmlns:xlink="http://www.w3.org/1999/xlink"><clipPath id="a"><rect height="136" rx="18" width="136"/></clipPath><g clip-path="url(#a)"><rect fill="#000" height="136" rx="18" width="136"/><path d="m118.83 0h-101.66c-9.48 0-17.17 7.69-17.17 17.17v101.66c0 9.48 7.69 17.17 17.17 17.17h101.66c9.48 0 17.17-7.69 17.17-17.17v-101.66c0-9.48-7.69-17.17-17.17-17.17zm-91.56 50.64c0-7.43 6.03-13.46 13.46-13.46h25.91c.38 0 .73.23.89.58s.09.76-.17 1.05l-5.68 6.17c-.99 1.07-2.38 1.69-3.84 1.69h-17.04c-2.23 0-4.04 1.81-4.04 4.04v10.18c0 1.31-1.06 2.37-2.37 2.37h-4.74c-1.31 0-2.37-1.06-2.37-2.37v-10.25zm80.61 34.72c0 7.43-6.03 13.46-13.46 13.46h-11.01c-7.43 0-13.46-6.03-13.46-13.46v-19.27c0-1.31.49-2.57 1.38-3.54l6.42-6.97c.27-.29.69-.39 1.07-.25.37.15.62.5.62.9v29.07c0 2.23 1.81 4.04 4.04 4.04h10.88c2.23 0 4.04-1.81 4.04-4.04v-34.59c0-2.23-1.81-4.04-4.04-4.04h-12.65c-1.45 0-2.83.61-3.82 1.67l-37.73 41h22.67c1.31 0 2.37 1.06 2.37 2.37v4.74c0 1.31-1.06 2.37-2.37 2.37h-30.55c-2.77 0-5.02-2.25-5.02-5.02v-2.51c0-1.26.47-2.47 1.33-3.4l42.3-45.95c2.8-3.04 6.73-4.76 10.86-4.76h12.66c7.43 0 13.46 6.03 13.46 13.46v34.72z" fill="#fff"/></g></svg>