<svg xmlns="http://www.w3.org/2000/svg" width="14" height="14" viewBox="0 0 814 1000">
  <path fill="currentColor" d="M788.1 340.9c-5.8 4.5-108.2 62.2-108.2 190.5 0 148.4 130.3 200.9 134.2 202.2-.6 3.2-20.7 71.9-68.7 141.9-42.8 61.6-87.5 123.1-155.5 123.1s-85.5-39.5-164-39.5c-76.5 0-103.7 40.8-165.9 40.8s-105-57.8-155.5-127.4C46 382.9 58.8 213.2 100.8 112.4c24.7-59.9 92.3-109.4 171.4-109.4s106.5 40.8 176.2 40.8 92.1-40.8 181.8-40.8 140.5 40.8 157.9 40.8c0-1-25.9 52.1-25.9 112.4zm-217.3-168.3c3.7-31.9 11.1-73 43.8-113.2 25.8-31.3 72.4-56.6 108.5-56.6 3.7 0 7.4.3 11.1.6-4.5 38.3-15.4 77.4-44 107.8-25.4 28-68.2 51.3-119.4 61.4z"/>
</svg>
