<svg xmlns="http://www.w3.org/2000/svg" viewBox="0 0 814 1000">
  <path d="M788.1 340.9c-5.8 4.5-108.2 62.2-108.2 190.5 0 148.4 130.3 200.9 134.2 202.2-.6 3.2-20.7 71.9-68.7 141.9-42.8 61.6-87.5 123.1-155.5 123.1s-85.5-39.5-164-39.5c-76 0-103.7 40.8-165.9 40.8s-105-37.5-155.5-127.4C46.8 790 0 698.8 0 610c0-155.5 101.2-238 200.2-238 52.7 0 96.6 35.5 129.3 35.5 30.8 0 79.4-37.5 142.9-37.5 22.8 0 108.8 2 163.8 76.1zm-124.9-237c-23.2 27.2-60.5 48.5-97.3 48.5-4.5 0-9-.6-13.6-.6-.6-4.5-.6-9-.6-13.6 0-56.8 41.5-116.3 85.5-143.5 23.8-14.8 64.3-26.8 91.5-26.8 3.2 0 6.5.6 9.7.6 1.9 6.5 2.6 12.9 2.6 19.4 0 59.1-41.5 120.2-77.8 116z"/>
</svg>
