<svg width="24" height="24" viewBox="0 0 40 40" xmlns="http://www.w3.org/2000/svg">
<path d="M20.056 4.50022C14.0839 4.44597 9.20616 9.15015 9.15036 15.0106C9.09611 20.8726 13.8855 25.6621 19.8576 25.7163H23.6085V21.7391H20.056C16.3252 21.7825 13.2671 18.8468 13.2237 15.1827C13.1787 11.5216 16.1702 8.52086 19.901 8.47746H20.056C23.7868 8.47746 26.8108 11.4457 26.8216 15.1083V24.8809C26.8216 28.5109 23.8085 31.4683 20.1211 31.5132C18.3617 31.5007 16.6759 30.8049 15.42 29.5726L12.551 32.3905C14.5529 34.3571 17.239 35.4715 20.0451 35.4998H20.1877C26.0823 35.413 30.8175 30.7212 30.85 24.9351V14.8603C30.7059 9.0928 25.9165 4.50022 20.056 4.50022Z" fill="#F55036"/>
</svg>
