<svg xmlns="http://www.w3.org/2000/svg" viewBox="0 32.25 142 55.5" fill="currentColor" preserveAspectRatio="xMidYMid meet">
  <path d="M84.848 34.137c-9.798 0-17.769 7.971-17.769 17.77s7.971 17.769 17.769 17.769 17.77-7.971 17.77-17.769-7.972-17.77-17.77-17.77zm0 28.876c-6.124 0-11.106-4.983-11.106-11.106s4.982-11.106 11.106-11.106c6.124 0 11.106 4.982 11.106 11.106S90.973 63.013 84.848 63.013z" />
  <path d="M60.315 34.206c-.607-.068-1.217-.104-1.827-.108-.304 0-.595.009-.893.014s-.594.033-.891.051c-1.197.094-2.382.299-3.541.611-2.329.629-4.574 1.723-6.515 3.277-1.97 1.57-3.548 3.575-4.611 5.859-.53 1.138-.921 2.336-1.165 3.567-.121.608-.21 1.222-.266 1.84-.02.307-.055.615-.059.921l-.011.459-.005.23v.19l.015 5.951.015 5.951.041 5.95h6.664l.042-5.95.015-5.952.015-5.951v-.182l.005-.142.008-.285c0-.191.028-.375.039-.564.036-.37.091-.738.165-1.102.146-.716.374-1.413.678-2.077.613-1.332 1.528-2.502 2.673-3.419 1.156-.932 2.541-1.628 4.038-2.042.757-.207 1.532-.344 2.314-.408.198-.011.395-.03.594-.037.199-.007.402-.013.595-.012.383 0 .76.025 1.142.06 1.518.153 2.989.619 4.318 1.368l3.326-5.776C65.108 35.263 62.753 34.484 60.315 34.206z" />
  <path d="M17.77 34.048C7.971 34.048 0 42.019 0 51.817s7.971 17.77 17.77 17.77h5.844v-6.664H17.77c-6.124 0-11.106-4.982-11.106-11.106s4.982-11.106 11.106-11.106 11.132 4.982 11.132 11.106v16.365c0 6.084-4.954 11.039-11.023 11.103-2.904-.024-5.681-1.191-7.729-3.25l-4.712 4.712c3.266 3.283 7.691 5.151 12.321 5.201v.003c.04 0 .08 0 .119 0h.125v-.003c9.659-.131 17.48-8.005 17.525-17.686l.006-16.881C35.302 41.785 27.422 34.048 17.77 34.048z" />
  <path d="M124.083 34.137c-9.798 0-17.769 7.971-17.769 17.77s7.971 17.769 17.769 17.769h6.08v-6.663h-6.08c-6.124 0-11.106-4.983-11.106-11.106s4.982-11.106 11.106-11.106c5.799 0 10.572 4.468 11.062 10.143h-.01v34.12h6.664V51.907C141.797 42.108 133.881 34.137 124.083 34.137z" />
</svg>
