<svg width="24" height="24" viewBox="0 0 24 24" fill="none" xmlns="http://www.w3.org/2000/svg">
<path d="M6.80092 4.84535C6.30485 4.88004 5.84288 5.11037 5.51664 5.48567C5.19039 5.86097 5.0266 6.3505 5.06128 6.84657L5.25747 9.65222C5.30951 10.3963 5.16235 11.1237 4.84837 11.6744C4.53438 12.2251 4.0793 12.554 3.58323 12.5887C4.0793 12.554 4.57572 12.8163 4.96329 13.3179C5.35086 13.8196 5.59782 14.5194 5.64985 15.2635L5.84605 18.0692C5.88073 18.5652 6.11106 19.0272 6.48637 19.3535C6.86167 19.6797 7.3512 19.8435 7.84727 19.8088" fill="currentFill"/>
<path d="M16.1531 4.19138C16.6492 4.15669 17.1387 4.32049 17.514 4.64673C17.8893 4.97298 18.1196 5.43495 18.1543 5.93102L18.3505 8.73667C18.4025 9.48077 18.6495 10.1806 19.0371 10.6823C19.4246 11.1839 19.9211 11.4462 20.4171 11.4115C19.9211 11.4462 19.466 11.7751 19.152 12.3258C18.838 12.8765 18.6909 13.6039 18.7429 14.348L18.9391 17.1536C18.9738 17.6497 18.81 18.1392 18.4837 18.5145C18.1575 18.8898 17.6955 19.1202 17.1994 19.1548" fill="currentFill"/>
<path d="M6.80092 4.84535C6.30485 4.88004 5.84288 5.11037 5.51664 5.48567C5.19039 5.86097 5.0266 6.3505 5.06128 6.84657L5.25747 9.65222C5.30951 10.3963 5.16235 11.1237 4.84837 11.6744C4.53438 12.2251 4.0793 12.554 3.58323 12.5887C4.0793 12.554 4.57572 12.8163 4.96329 13.3179C5.35086 13.8196 5.59782 14.5194 5.64985 15.2635L5.84605 18.0692C5.88073 18.5652 6.11106 19.0272 6.48637 19.3535C6.86167 19.6797 7.3512 19.8435 7.84727 19.8088M16.1531 4.19138C16.6492 4.15669 17.1387 4.32049 17.514 4.64673C17.8893 4.97298 18.1196 5.43495 18.1543 5.93102L18.3505 8.73667C18.4025 9.48077 18.6495 10.1806 19.0371 10.6823C19.4246 11.1839 19.9211 11.4462 20.4171 11.4115C19.9211 11.4462 19.466 11.7751 19.152 12.3258C18.838 12.8765 18.6909 13.6039 18.7429 14.348L18.9391 17.1536C18.9738 17.6497 18.81 18.1392 18.4837 18.5145C18.1575 18.8898 17.6955 19.1202 17.1994 19.1548" stroke="currentColor" stroke-width="1.49625" stroke-linecap="round" stroke-linejoin="round"/>
</svg>
