<svg width="25" height="24" viewBox="0 0 25 24" fill="none" xmlns="http://www.w3.org/2000/svg">
<path d="M12.8968 20.4301L6.54196 20.8745C6.04589 20.9092 5.55636 20.7454 5.18105 20.4191C4.80575 20.0929 4.57542 19.6309 4.54073 19.1348L3.75597 7.91225C3.72128 7.41618 3.88508 6.92665 4.21132 6.55135C4.53757 6.17605 4.99954 5.94571 5.49561 5.91103L16.7182 5.12627C17.2143 5.09158 17.7038 5.25537 18.0791 5.58162C18.4544 5.90786 18.6847 6.36984 18.7194 6.8659L18.981 10.6068" fill="currentFill"/>
<path d="M14.7627 17.4803C14.8321 18.4724 15.2928 19.3964 16.0434 20.0488C16.794 20.7013 17.773 21.0289 18.7652 20.9595C19.7573 20.8902 20.6812 20.4295 21.3337 19.6789C21.9862 18.9283 22.3138 17.9492 22.2444 16.9571C22.1751 15.965 21.7144 15.041 20.9638 14.3885C20.2132 13.736 19.2341 13.4084 18.242 13.4778C17.2499 13.5472 16.3259 14.0079 15.6734 14.7585C15.0209 15.5091 14.6933 16.4881 14.7627 17.4803Z" fill="#E8EFFD"/>
<path d="M14.717 3.38663L14.9786 7.12749L14.717 3.38663Z" fill="#E8EFFD"/>
<path d="M7.23525 3.9098L7.49684 7.65067L7.23525 3.9098Z" fill="#E8EFFD"/>
<path d="M4.01756 11.6531L18.981 10.6068L4.01756 11.6531Z" fill="#E8EFFD"/>
<path d="M18.4052 15.8122L18.5036 17.2188L19.5042 18.0886" fill="#E8EFFD"/>
<path d="M12.8968 20.4301L6.54196 20.8745C6.04589 20.9092 5.55636 20.7454 5.18105 20.4191C4.80575 20.0929 4.57542 19.6309 4.54073 19.1348L3.75597 7.91225C3.72128 7.41618 3.88508 6.92665 4.21132 6.55135C4.53757 6.17605 4.99954 5.94571 5.49561 5.91103L16.7182 5.12627C17.2143 5.09158 17.7038 5.25537 18.0791 5.58162C18.4544 5.90786 18.6847 6.36984 18.7194 6.8659L18.981 10.6068L4.01756 11.6531M14.717 3.38663L14.9786 7.12749M7.23525 3.9098L7.49684 7.65067M18.4052 15.8122L18.5036 17.2188L19.5042 18.0886M14.7627 17.4803C14.8321 18.4724 15.2928 19.3964 16.0434 20.0488C16.794 20.7013 17.773 21.0289 18.7652 20.9595C19.7573 20.8902 20.6812 20.4295 21.3337 19.6789C21.9862 18.9283 22.3138 17.9492 22.2444 16.9571C22.1751 15.965 21.7144 15.041 20.9638 14.3885C20.2132 13.736 19.2341 13.4084 18.242 13.4778C17.2499 13.5472 16.3259 14.0079 15.6734 14.7585C15.0209 15.5091 14.6933 16.4881 14.7627 17.4803Z" stroke="currentColor" stroke-width="1.49625" stroke-linecap="round" stroke-linejoin="round"/>
</svg>
