<svg width="25" height="24" viewBox="0 0 25 24" fill="none" xmlns="http://www.w3.org/2000/svg">
<path d="M3.75628 7.91194C3.72159 7.41587 3.88539 6.92633 4.21163 6.55103C4.53788 6.17573 4.99985 5.9454 5.49592 5.91071L18.5889 4.99516C19.085 4.96047 19.5746 5.12426 19.9499 5.45051C20.3252 5.77675 20.5555 6.23873 20.5902 6.7348L21.2441 16.087C21.2788 16.583 21.115 17.0726 20.7888 17.4479C20.4625 17.8232 20.0006 18.0535 19.5045 18.0882L6.41147 19.0037C5.9154 19.0384 5.42587 18.8746 5.05057 18.5484C4.67527 18.2221 4.44494 17.7602 4.41025 17.2641L3.75628 7.91194Z" fill="currentFill"/>
<path d="M7.69334 10.456L8.62855 10.3906L8.89014 14.1315" fill="#E8EFFD"/>
<path d="M14.5014 13.7391L14.2399 9.99822L17.3071 13.5429L17.0455 9.80203" fill="currentFill"/>
<path d="M11.4669 10.662L11.4676 10.6714L11.4669 10.662Z" fill="#E8EFFD"/>
<path d="M11.6631 13.4677L11.6637 13.477L11.6631 13.4677Z" fill="#E8EFFD"/>
<path d="M7.69334 10.456L8.62855 10.3906L8.89014 14.1315M14.5014 13.7391L14.2399 9.99822L17.3071 13.5429L17.0455 9.80203M11.4669 10.662L11.4676 10.6714M11.6631 13.4677L11.6637 13.477M3.75628 7.91194C3.72159 7.41587 3.88539 6.92633 4.21163 6.55103C4.53788 6.17573 4.99985 5.9454 5.49592 5.91071L18.5889 4.99516C19.085 4.96047 19.5746 5.12426 19.9499 5.45051C20.3252 5.77675 20.5555 6.23873 20.5902 6.7348L21.2441 16.087C21.2788 16.583 21.115 17.0726 20.7888 17.4479C20.4625 17.8232 20.0006 18.0535 19.5045 18.0882L6.41147 19.0037C5.9154 19.0384 5.42587 18.8746 5.05057 18.5484C4.67527 18.2221 4.44494 17.7602 4.41025 17.2641L3.75628 7.91194Z" stroke="currentColor" stroke-width="1.49625" stroke-linecap="round" stroke-linejoin="round"/>
</svg>
