<svg width="25" height="26" viewBox="0 0 25 26" fill="none" xmlns="http://www.w3.org/2000/svg">
<path d="M4.50317 7.59525C4.56818 6.85217 4.92571 6.16535 5.49712 5.68588C6.06853 5.20641 6.80701 4.97357 7.55009 5.03858L18.7573 6.01908C19.5004 6.0841 20.1872 6.44163 20.6667 7.01304C21.1461 7.58445 21.379 8.32292 21.314 9.06601L20.4969 18.4053C20.4319 19.1484 20.0743 19.8352 19.5029 20.3147C18.9315 20.7942 18.193 21.027 17.4499 20.962L6.24275 19.9815C5.49967 19.9165 4.81285 19.559 4.33338 18.9875C3.85391 18.4161 3.62107 17.6777 3.68608 16.9346L4.50317 7.59525Z" fill="currentFill"/>
<path d="M7.99377 10.7239C7.95043 11.2193 8.10566 11.7116 8.4253 12.0925C8.74495 12.4735 9.20283 12.7118 9.69822 12.7552C10.1936 12.7985 10.6859 12.6433 11.0669 12.3236C11.4478 12.004 11.6862 11.5461 11.7295 11.0507C11.7728 10.5553 11.6176 10.063 11.298 9.68208C10.9783 9.30114 10.5204 9.06278 10.0251 9.01944C9.52966 8.9761 9.03735 9.13132 8.65641 9.45097C8.27547 9.77062 8.03711 10.2285 7.99377 10.7239Z" fill="currentFill"/>
<path d="M15.6286 9.50969L17.4965 9.67311L15.6286 9.50969Z" fill="#E8EFFD"/>
<path d="M15.3018 13.2454L17.1697 13.4088L15.3018 13.2454Z" fill="#E8EFFD"/>
<path d="M7.50352 16.3275L16.8428 17.1446L7.50352 16.3275Z" fill="#E8EFFD"/>
<path d="M15.6286 9.50969L17.4965 9.67311M15.3018 13.2454L17.1697 13.4088M7.50352 16.3275L16.8428 17.1446M4.50317 7.59525C4.56818 6.85217 4.92571 6.16535 5.49712 5.68588C6.06853 5.20641 6.80701 4.97357 7.55009 5.03858L18.7573 6.01908C19.5004 6.0841 20.1872 6.44163 20.6667 7.01304C21.1461 7.58445 21.379 8.32292 21.314 9.06601L20.4969 18.4053C20.4319 19.1484 20.0743 19.8352 19.5029 20.3147C18.9315 20.7942 18.193 21.027 17.4499 20.962L6.24275 19.9815C5.49967 19.9165 4.81285 19.559 4.33338 18.9875C3.85391 18.4161 3.62107 17.6777 3.68608 16.9346L4.50317 7.59525ZM7.99377 10.7239C7.95043 11.2193 8.10566 11.7116 8.4253 12.0925C8.74495 12.4735 9.20283 12.7118 9.69822 12.7552C10.1936 12.7985 10.6859 12.6433 11.0669 12.3236C11.4478 12.004 11.6862 11.5461 11.7295 11.0507C11.7728 10.5553 11.6176 10.063 11.298 9.68208C10.9783 9.30114 10.5204 9.06278 10.0251 9.01944C9.52966 8.9761 9.03735 9.13132 8.65641 9.45097C8.27547 9.77062 8.03711 10.2285 7.99377 10.7239Z" stroke="currentColor" stroke-width="1.49625" stroke-linecap="round" stroke-linejoin="round"/>
</svg>
