<svg width="24" height="24" viewBox="0 0 24 24" fill="none" xmlns="http://www.w3.org/2000/svg">
<g clip-path="url(#clip0_39321_100611)">
<path d="M10.2501 3.41974L14.9262 3.74672C15.2983 3.77274 15.6447 3.94549 15.8894 4.22697C16.1341 4.50844 16.257 4.87559 16.2309 5.24764C16.1702 6.11577 15.7672 6.92422 15.1104 7.49515C14.4536 8.06608 13.5969 8.35272 12.7288 8.29201L11.7936 8.22662C10.9255 8.16591 10.117 7.76283 9.54608 7.10605C8.97515 6.44927 8.68851 5.59259 8.74922 4.72447C8.77523 4.35242 8.94798 4.00594 9.22946 3.76125C9.51093 3.51657 9.87808 3.39372 10.2501 3.41974Z" fill="#E8EFFD"/>
<path d="M4.19089 16.1531L4.25629 15.2179C4.39504 13.2336 5.31637 11.3857 6.81758 10.0807C8.31879 8.77574 10.2769 8.12056 12.2612 8.25931C14.2455 8.39807 16.0934 9.31939 17.3983 10.8206C18.7033 12.3218 19.3585 14.2799 19.2197 16.2642L19.1544 17.1994C19.085 18.1916 18.6243 19.1155 17.8737 19.768C17.1231 20.4205 16.144 20.7481 15.1519 20.6787L7.67017 20.1555C6.67803 20.0862 5.75409 19.6255 5.1016 18.8749C4.4491 18.1243 4.12151 17.1452 4.19089 16.1531Z" fill="#E8EFFD"/>
<path d="M10.2501 3.41974L14.9262 3.74672C15.2983 3.77274 15.6447 3.94549 15.8894 4.22697C16.1341 4.50844 16.257 4.87559 16.2309 5.24764C16.1702 6.11577 15.7672 6.92422 15.1104 7.49515C14.4536 8.06608 13.5969 8.35272 12.7288 8.29201L11.7936 8.22662C10.9255 8.16591 10.117 7.76283 9.54608 7.10605C8.97515 6.44927 8.68851 5.59259 8.74922 4.72447C8.77523 4.35242 8.94798 4.00594 9.22946 3.76125C9.51093 3.51657 9.87808 3.39372 10.2501 3.41974Z" stroke="currentColor" stroke-width="1.49625" stroke-linecap="round" stroke-linejoin="round"/>
<path d="M4.19089 16.1531L4.25629 15.2179C4.39504 13.2336 5.31637 11.3857 6.81758 10.0807C8.31879 8.77574 10.2769 8.12056 12.2612 8.25931C14.2455 8.39807 16.0934 9.31939 17.3983 10.8206C18.7033 12.3218 19.3585 14.2799 19.2197 16.2642L19.1544 17.1994C19.085 18.1916 18.6243 19.1155 17.8737 19.768C17.1231 20.4205 16.144 20.7481 15.1519 20.6787L7.67017 20.1555C6.67803 20.0862 5.75409 19.6255 5.1016 18.8749C4.4491 18.1243 4.12151 17.1452 4.19089 16.1531Z" stroke="currentColor" stroke-width="1.49625" stroke-linecap="round" stroke-linejoin="round"/>
</g>
<defs>
<clipPath id="clip0_39321_100611">
<rect x="0.75" y="0.75" width="22.5" height="22.5" rx="2.25" fill="white"/>
</clipPath>
</defs>
</svg>
