<svg width="25" height="24" viewBox="0 0 25 24" fill="none" xmlns="http://www.w3.org/2000/svg">
<path d="M4.08295 12.5883C4.16025 13.6937 4.45449 14.7729 4.94889 15.7646C5.44329 16.7562 6.12816 17.6407 6.9644 18.3676C7.80064 19.0946 8.77187 19.6497 9.82264 20.0012C10.8734 20.3528 11.9831 20.494 13.0885 20.4167C14.1938 20.3394 15.2731 20.0452 16.2647 19.5508C17.2563 19.0564 18.1408 18.3715 18.8678 17.5353C19.5947 16.699 20.1498 15.7278 20.5014 14.677C20.853 13.6263 20.9941 12.5165 20.9168 11.4112C20.8396 10.3059 20.5453 9.22658 20.0509 8.23497C19.5565 7.24336 18.8716 6.35883 18.0354 5.6319C17.1992 4.90497 16.2279 4.34987 15.1772 3.99828C14.1264 3.6467 13.0167 3.50552 11.9113 3.58282C10.806 3.66011 9.72672 3.95435 8.73511 4.44875C7.74349 4.94315 6.85897 5.62803 6.13204 6.46427C5.40511 7.3005 4.85 8.27174 4.49842 9.32251C4.14684 10.3733 4.00566 11.483 4.08295 12.5883Z" fill="none"/>
<path d="M9.56346 10.3255C9.61549 11.0696 9.96099 11.7626 10.5239 12.252C11.0869 12.7413 11.8212 12.987 12.5653 12.935C13.3094 12.8829 14.0024 12.5375 14.4917 11.9745C14.9811 11.4115 15.2268 10.6772 15.1748 9.93314C15.1227 9.18904 14.7772 8.49608 14.2143 8.00671C13.6513 7.51734 12.917 7.27165 12.1729 7.32368C11.4288 7.37571 10.7359 7.72121 10.2465 8.28416C9.75712 8.84712 9.51143 9.58142 9.56346 10.3255Z" fill="#E8EFFD"/>
<path d="M7.49359 18.7865C7.6712 17.9999 8.09763 17.2915 8.70962 16.7664C9.32162 16.2413 10.0866 15.9274 10.891 15.8714L14.6319 15.6098C15.4373 15.5532 16.2395 15.7581 16.9192 16.194C17.5989 16.6299 18.1197 17.2735 18.4042 18.0291" fill="currentFill"/>
<path d="M7.49359 18.7865C7.6712 17.9999 8.09763 17.2915 8.70962 16.7664C9.32162 16.2413 10.0866 15.9274 10.891 15.8714L14.6319 15.6098C15.4373 15.5532 16.2395 15.7581 16.9192 16.194C17.5989 16.6299 18.1197 17.2735 18.4042 18.0291M4.08295 12.5883C4.16025 13.6937 4.45449 14.7729 4.94889 15.7646C5.44329 16.7562 6.12816 17.6407 6.9644 18.3676C7.80064 19.0946 8.77187 19.6497 9.82264 20.0012C10.8734 20.3528 11.9831 20.494 13.0885 20.4167C14.1938 20.3394 15.2731 20.0452 16.2647 19.5508C17.2563 19.0564 18.1408 18.3715 18.8678 17.5353C19.5947 16.699 20.1498 15.7278 20.5014 14.677C20.853 13.6263 20.9941 12.5165 20.9168 11.4112C20.8396 10.3059 20.5453 9.22658 20.0509 8.23497C19.5565 7.24336 18.8716 6.35883 18.0354 5.6319C17.1992 4.90497 16.2279 4.34987 15.1772 3.99828C14.1264 3.6467 13.0167 3.50552 11.9113 3.58282C10.806 3.66011 9.72672 3.95435 8.73511 4.44875C7.7435 4.94315 6.85897 5.62803 6.13204 6.46427C5.40511 7.3005 4.85 8.27174 4.49842 9.32251C4.14684 10.3733 4.00566 11.483 4.08295 12.5883ZM9.56346 10.3255C9.61549 11.0696 9.96099 11.7626 10.5239 12.252C11.0869 12.7413 11.8212 12.987 12.5653 12.935C13.3094 12.8829 14.0024 12.5375 14.4917 11.9745C14.9811 11.4115 15.2268 10.6772 15.1748 9.93314C15.1227 9.18904 14.7772 8.49608 14.2143 8.00671C13.6513 7.51734 12.917 7.27165 12.1729 7.32368C11.4288 7.37571 10.7359 7.72121 10.2465 8.28416C9.75712 8.84712 9.51143 9.58142 9.56346 10.3255Z" stroke="currentColor" stroke-width="1.49625" stroke-linecap="round" stroke-linejoin="round"/>
</svg>
