<svg width="24" height="24" viewBox="0 0 24 24" fill="none" xmlns="http://www.w3.org/2000/svg">
<path d="M5.38754 12.4777C5.42223 11.9816 5.65256 11.5196 6.02786 11.1934C6.40316 10.8671 6.89269 10.7033 7.38876 10.738L16.7409 11.392C17.237 11.4267 17.699 11.657 18.0252 12.0323C18.3515 12.4076 18.5153 12.8971 18.4806 13.3932L18.0882 19.0045C18.0535 19.5006 17.8232 19.9625 17.4479 20.2888C17.0726 20.615 16.583 20.7788 16.087 20.7441L6.7348 20.0902C6.23873 20.0555 5.77675 19.8252 5.45051 19.4499C5.12426 19.0746 4.96047 18.585 4.99516 18.0889L5.38754 12.4777Z" fill="#E8EFFD"/>
<path d="M10.8026 15.6757C10.7853 15.9237 10.8672 16.1685 11.0303 16.3561C11.1934 16.5438 11.4244 16.6589 11.6725 16.6763C11.9205 16.6936 12.1653 16.6117 12.3529 16.4486C12.5406 16.2855 12.6557 16.0545 12.6731 15.8065C12.6904 15.5584 12.6085 15.3137 12.4454 15.126C12.2823 14.9384 12.0513 14.8232 11.8033 14.8059C11.5552 14.7885 11.3105 14.8704 11.1228 15.0335C10.9352 15.1967 10.82 15.4276 10.8026 15.6757Z" fill="currentFill"/>
<path d="M8.32398 10.8034L8.58557 7.06254C8.65494 6.0704 9.1156 5.14646 9.86621 4.49397C10.6168 3.84148 11.5959 3.51389 12.588 3.58327C13.5802 3.65264 14.5041 4.1133 15.1566 4.86391C15.8091 5.61451 16.1367 6.59358 16.0673 7.58572L15.8057 11.3266" fill="#E8EFFD"/>
<path d="M8.32398 10.8034L8.58557 7.06254C8.65494 6.0704 9.1156 5.14646 9.86621 4.49397C10.6168 3.84148 11.5959 3.51389 12.588 3.58327C13.5802 3.65264 14.5041 4.1133 15.1566 4.86391C15.8091 5.61451 16.1367 6.59358 16.0673 7.58572L15.8057 11.3266M5.38754 12.4777C5.42223 11.9816 5.65256 11.5196 6.02786 11.1934C6.40316 10.8671 6.89269 10.7033 7.38876 10.738L16.7409 11.392C17.237 11.4267 17.699 11.657 18.0252 12.0323C18.3515 12.4076 18.5153 12.8971 18.4806 13.3932L18.0882 19.0045C18.0535 19.5006 17.8232 19.9625 17.4479 20.2888C17.0726 20.615 16.583 20.7788 16.087 20.7441L6.7348 20.0902C6.23873 20.0555 5.77675 19.8252 5.45051 19.4499C5.12426 19.0746 4.96047 18.585 4.99516 18.0889L5.38754 12.4777ZM10.8026 15.6757C10.7853 15.9237 10.8672 16.1685 11.0303 16.3561C11.1934 16.5438 11.4244 16.6589 11.6725 16.6763C11.9205 16.6936 12.1653 16.6117 12.3529 16.4486C12.5406 16.2855 12.6557 16.0545 12.6731 15.8065C12.6904 15.5584 12.6085 15.3137 12.4454 15.126C12.2823 14.9384 12.0513 14.8232 11.8033 14.8059C11.5552 14.7885 11.3105 14.8704 11.1228 15.0335C10.9352 15.1967 10.82 15.4276 10.8026 15.6757Z" stroke="currentColor" stroke-width="1.49625" stroke-linecap="round" stroke-linejoin="round"/>
</svg>
