<svg width="26" height="26" viewBox="-1 0 26 26" fill="none" xmlns="http://www.w3.org/2000/svg">
<path d="M5.66433 7.43347C5.72493 6.9399 5.97912 6.49062 6.37099 6.18446C6.76285 5.8783 7.26028 5.74035 7.75386 5.80095L18.92 7.17199C19.4136 7.23259 19.8629 7.48678 20.169 7.87864C20.4752 8.27051 20.6131 8.76794 20.5525 9.26151L19.1815 20.4277C19.1209 20.9212 18.8667 21.3705 18.4748 21.6767C18.083 21.9828 17.5855 22.1208 17.092 22.0602L5.92582 20.6891C5.43224 20.6285 4.98296 20.3744 4.6768 19.9825C4.37064 19.5906 4.23269 19.0932 4.2933 18.5996L5.66433 7.43347Z" fill="#E8EFFD"/>
<path d="M17.2875 5.08246L16.8305 8.8045L17.2875 5.08246Z" fill="#E8EFFD"/>
<path d="M9.84339 4.16844L9.38638 7.89048L9.84339 4.16844Z" fill="#E8EFFD"/>
<path d="M5.20732 11.1555L20.0955 12.9836L5.20732 11.1555Z" fill="#E8EFFD"/>
<path d="M8.47236 15.3346L10.3334 15.5631L10.1049 17.4241L8.24385 17.1956L8.47236 15.3346Z" fill="#E8EFFD"/>
<path d="M17.2875 5.08246L16.8305 8.8045M9.84339 4.16844L9.38638 7.89048M5.20732 11.1555L20.0955 12.9836M5.66433 7.43347C5.72493 6.9399 5.97912 6.49062 6.37099 6.18446C6.76285 5.8783 7.26028 5.74035 7.75386 5.80095L18.92 7.17199C19.4136 7.23259 19.8629 7.48678 20.169 7.87864C20.4752 8.27051 20.6131 8.76794 20.5525 9.26151L19.1815 20.4277C19.1209 20.9212 18.8667 21.3705 18.4748 21.6767C18.083 21.9828 17.5855 22.1208 17.092 22.0602L5.92582 20.6891C5.43224 20.6285 4.98296 20.3744 4.6768 19.9825C4.37064 19.5906 4.23269 19.0932 4.2933 18.5996L5.66433 7.43347ZM8.47236 15.3346L10.3334 15.5631L10.1049 17.4241L8.24385 17.1956L8.47236 15.3346Z" stroke="currentColor" stroke-width="1.49625" stroke-linecap="round" stroke-linejoin="round"/>
</svg>
