<svg width="25" height="24" viewBox="0 0 25 24" fill="none" xmlns="http://www.w3.org/2000/svg">
<path d="M9.06327 9.89091C9.57978 9.85479 9.96921 9.4068 9.93309 8.8903C9.89697 8.37379 9.44898 7.98436 8.93248 8.02048C8.41597 8.05659 8.02654 8.50458 8.06266 9.02109C8.09878 9.53759 8.54677 9.92703 9.06327 9.89091Z" fill="currentFill"/>
<path d="M4.69131 7.84715L4.94367 11.4562C4.97879 11.9584 5.21167 12.4261 5.5919 12.7566L13.7129 19.8161C13.901 19.9796 14.1196 20.1046 14.356 20.1837C14.5925 20.2628 14.8422 20.2946 15.0909 20.2772C15.3396 20.2598 15.5825 20.1936 15.8056 20.0823C16.0287 19.9711 16.2278 19.8169 16.3913 19.6288L20.596 14.7918C20.7596 14.6036 20.8846 14.3851 20.9637 14.1487C21.0428 13.9122 21.0746 13.6625 21.0572 13.4138C21.0398 13.1651 20.9736 12.9222 20.8623 12.6991C20.7511 12.4759 20.5969 12.2769 20.4088 12.1133L12.2868 5.05395C11.9071 4.72385 11.4117 4.55804 10.9098 4.59295L7.30077 4.84531C6.55666 4.89735 5.8637 5.24284 5.37434 5.8058C4.88497 6.36875 4.63927 7.10305 4.69131 7.84715Z" fill="currentFill"/>
<path d="M9.06327 9.89091C9.57978 9.85479 9.96921 9.4068 9.93309 8.8903C9.89697 8.37379 9.44898 7.98436 8.93248 8.02048C8.41597 8.05659 8.02654 8.50458 8.06266 9.02109C8.09878 9.53759 8.54677 9.92703 9.06327 9.89091Z" stroke="currentColor" stroke-width="1.49625" stroke-linecap="round" stroke-linejoin="round"/>
<path d="M4.69131 7.84715L4.94367 11.4562C4.97879 11.9584 5.21167 12.4261 5.5919 12.7566L13.7129 19.8161C13.901 19.9796 14.1196 20.1046 14.356 20.1837C14.5925 20.2628 14.8422 20.2946 15.0909 20.2772C15.3396 20.2598 15.5825 20.1936 15.8056 20.0823C16.0287 19.9711 16.2278 19.8169 16.3913 19.6288L20.596 14.7918C20.7596 14.6036 20.8846 14.3851 20.9637 14.1487C21.0428 13.9122 21.0746 13.6625 21.0572 13.4138C21.0398 13.1651 20.9736 12.9222 20.8623 12.6991C20.7511 12.4759 20.5969 12.2769 20.4088 12.1133L12.2868 5.05395C11.9071 4.72385 11.4117 4.55804 10.9098 4.59295L7.30077 4.84531C6.55666 4.89735 5.8637 5.24284 5.37434 5.8058C4.88497 6.36875 4.63927 7.10305 4.69131 7.84715Z" stroke="currentColor" stroke-width="1.49625" stroke-linecap="round" stroke-linejoin="round" fill="none"/>
</svg>
