<svg width="25" height="24" viewBox="0 0 25 24" fill="none" xmlns="http://www.w3.org/2000/svg">
<g clip-path="url(#clip0_39321_100602)">
<path d="M14.3703 11.869C14.405 12.3651 14.6354 12.8271 15.0107 13.1533C15.386 13.4796 15.8755 13.6433 16.3716 13.6087C16.8676 13.574 17.3296 13.3436 17.6559 12.9683C17.9821 12.593 18.1459 12.1035 18.1112 11.6074C18.0765 11.1114 17.8462 10.6494 17.4709 10.3231C17.0956 9.9969 16.6061 9.8331 16.11 9.86779C15.6139 9.90248 15.1519 10.1328 14.8257 10.5081C14.4995 10.8834 14.3357 11.3729 14.3703 11.869Z" fill="currentFill"/>
<path d="M3.14775 12.6538C3.04369 11.1656 3.53507 9.69697 4.51381 8.57107C5.49255 7.44516 6.87846 6.75417 8.36667 6.6501L15.8484 6.12693C17.3366 6.02286 18.8052 6.51425 19.9311 7.49298C21.057 8.47172 21.748 9.85764 21.8521 11.3458C21.9561 12.8341 21.4648 14.3026 20.486 15.4286C19.5073 16.5545 18.1214 17.2455 16.6332 17.3495L9.15143 17.8727C7.66322 17.9768 6.19463 17.4854 5.06872 16.5066C3.94281 15.5279 3.25182 14.142 3.14775 12.6538Z" fill="currentFill"/>
<path d="M14.3703 11.869C14.405 12.3651 14.6354 12.8271 15.0107 13.1533C15.386 13.4796 15.8755 13.6433 16.3716 13.6087C16.8676 13.574 17.3296 13.3436 17.6559 12.9683C17.9821 12.593 18.1459 12.1035 18.1112 11.6074C18.0765 11.1114 17.8462 10.6494 17.4709 10.3231C17.0956 9.9969 16.6061 9.8331 16.11 9.86779C15.6139 9.90248 15.1519 10.1328 14.8257 10.5081C14.4995 10.8834 14.3357 11.3729 14.3703 11.869Z" stroke="currentColor" stroke-width="1.49625" stroke-linecap="round" stroke-linejoin="round"/>
<path d="M3.14775 12.6538C3.04369 11.1656 3.53507 9.69697 4.51381 8.57107C5.49255 7.44516 6.87846 6.75417 8.36667 6.6501L15.8484 6.12693C17.3366 6.02286 18.8052 6.51425 19.9311 7.49298C21.057 8.47172 21.748 9.85764 21.8521 11.3458C21.9561 12.8341 21.4648 14.3026 20.486 15.4286C19.5073 16.5545 18.1214 17.2455 16.6332 17.3495L9.15143 17.8727C7.66322 17.9768 6.19463 17.4854 5.06872 16.5066C3.94281 15.5279 3.25182 14.142 3.14775 12.6538Z" stroke="currentColor" stroke-width="1.49625" stroke-linecap="round" stroke-linejoin="round" fill="none"/>
</g>
<defs>
<clipPath id="clip0_39321_100602">
<rect x="1.25" y="0.75" width="22.5" height="22.5" rx="2.25" fill="white"/>
</clipPath>
</defs>
</svg>
