<svg xmlns="http://www.w3.org/2000/svg" viewBox="63.3336 29.3504 384.3334 418.3166" width="512px" height="512px" style="shape-rendering:geometricPrecision; text-rendering:geometricPrecision; image-rendering:optimizeQuality; fill-rule:evenodd; clip-rule:evenodd">
<g><path style="opacity:0.995" fill="#53d9fe" d="M 159.5,63.5 C 159.667,77.504 159.5,91.504 159,105.5C 153.578,116.468 145.412,119.301 134.5,114C 131.567,111.736 129.4,108.902 128,105.5C 127.5,91.504 127.333,77.504 127.5,63.5C 127.2,55.7767 127.533,48.1101 128.5,40.5C 133.149,32.1837 140.149,29.3504 149.5,32C 154,33.8333 157.167,37 159,41.5C 159.5,48.8258 159.666,56.1591 159.5,63.5 Z"/></g>
<g><path style="opacity:0.995" fill="#53d9fe" d="M 383.5,63.5 C 383.667,77.504 383.5,91.504 383,105.5C 377.578,116.468 369.412,119.301 358.5,114C 355.567,111.736 353.4,108.902 352,105.5C 351.5,91.504 351.333,77.504 351.5,63.5C 351.2,55.7767 351.533,48.1101 352.5,40.5C 357.149,32.1837 364.149,29.3504 373.5,32C 378,33.8333 381.167,37 383,41.5C 383.5,48.8258 383.666,56.1591 383.5,63.5 Z"/></g>
<g><path style="opacity:0.997" fill="#076cb3" d="M 116.5,63.5 C 116.5,74.5 116.5,85.5 116.5,96.5C 98.8499,99.275 81.1832,101.942 63.5,104.5C 63.3336,95.4938 63.5002,86.4938 64,77.5C 66.5,71 71,66.5 77.5,64C 90.4957,63.5001 103.496,63.3334 116.5,63.5 Z"/></g>
<g><path style="opacity:1" fill="#066bb3" d="M 170.5,63.5 C 225.167,63.5 279.833,63.5 334.5,63.5C 280.02,72.1889 225.353,80.5222 170.5,88.5C 170.5,80.1667 170.5,71.8333 170.5,63.5 Z"/></g>
<g><path style="opacity:1" fill="#0566b1" d="M 334.5,63.5 C 336.5,63.5 338.5,63.5 340.5,63.5C 340.333,77.504 340.5,91.504 341,105.5C 347.935,125.883 361.435,132.049 381.5,124C 386.876,120.429 390.709,115.595 393,109.5C 394.435,94.2246 394.935,78.8913 394.5,63.5C 407.504,63.3334 420.504,63.5001 433.5,64C 440,66.5 444.5,71 447,77.5C 447.5,90.8292 447.667,104.163 447.5,117.5C 379.316,127.478 311.316,137.811 243.5,148.5C 183.5,148.5 123.5,148.5 63.5,148.5C 63.5,133.833 63.5,119.167 63.5,104.5C 81.1832,101.942 98.8499,99.275 116.5,96.5C 116.99,118.074 127.99,128.24 149.5,127C 160.88,123.621 167.714,116.121 170,104.5C 170.499,99.1771 170.666,93.8437 170.5,88.5C 225.353,80.5222 280.02,72.1889 334.5,63.5 Z"/></g>
<g><path style="opacity:1" fill="#0662a7" d="M 116.5,63.5 C 120.167,63.5 123.833,63.5 127.5,63.5C 127.333,77.504 127.5,91.504 128,105.5C 129.4,108.902 131.567,111.736 134.5,114C 145.412,119.301 153.578,116.468 159,105.5C 159.5,91.504 159.667,77.504 159.5,63.5C 163.167,63.5 166.833,63.5 170.5,63.5C 170.5,71.8333 170.5,80.1667 170.5,88.5C 170.666,93.8437 170.499,99.1771 170,104.5C 167.714,116.121 160.88,123.621 149.5,127C 127.99,128.24 116.99,118.074 116.5,96.5C 116.5,85.5 116.5,74.5 116.5,63.5 Z"/></g>
<g><path style="opacity:1" fill="#055fa6" d="M 340.5,63.5 C 344.167,63.5 347.833,63.5 351.5,63.5C 351.333,77.504 351.5,91.504 352,105.5C 353.4,108.902 355.567,111.736 358.5,114C 369.412,119.301 377.578,116.468 383,105.5C 383.5,91.504 383.667,77.504 383.5,63.5C 387.167,63.5 390.833,63.5 394.5,63.5C 394.935,78.8913 394.435,94.2246 393,109.5C 390.709,115.595 386.876,120.429 381.5,124C 361.435,132.049 347.935,125.883 341,105.5C 340.5,91.504 340.333,77.504 340.5,63.5 Z"/></g>
<g><path style="opacity:1" fill="#0462af" d="M 447.5,117.5 C 447.5,127.833 447.5,138.167 447.5,148.5C 379.5,148.5 311.5,148.5 243.5,148.5C 311.316,137.811 379.316,127.478 447.5,117.5 Z"/></g>
<g><path style="opacity:1" fill="#2cb4ec" d="M 63.5,149.5 C 178.167,149.333 292.834,149.5 407.5,150C 292.823,163.168 178.157,176.335 63.5,189.5C 63.5,176.167 63.5,162.833 63.5,149.5 Z"/></g>
<g><path style="opacity:1" fill="#2ab1ea" d="M 63.5,149.5 C 63.5,149.167 63.5,148.833 63.5,148.5C 123.5,148.5 183.5,148.5 243.5,148.5C 311.5,148.5 379.5,148.5 447.5,148.5C 447.5,164.167 447.5,179.833 447.5,195.5C 430.821,197.15 414.154,198.983 397.5,201C 396.944,201.383 396.611,201.883 396.5,202.5C 387.161,202.334 377.827,202.5 368.5,203C 367.016,203.662 365.683,204.496 364.5,205.5C 364.44,204.957 364.107,204.624 363.5,204.5C 348.897,206.604 334.23,208.271 319.5,209.5C 317.691,206.861 315.358,204.694 312.5,203C 302.833,202.333 293.167,202.333 283.5,203C 279.002,205.494 276.668,209.327 276.5,214.5C 262.551,216.457 248.551,218.124 234.5,219.5C 235.834,212.344 233.5,206.844 227.5,203C 217.5,202.333 207.5,202.333 197.5,203C 195.291,204.873 193.458,207.04 192,209.5C 191.501,214.489 191.334,219.489 191.5,224.5C 148.802,229.355 106.135,234.355 63.5,239.5C 63.5,222.833 63.5,206.167 63.5,189.5C 178.157,176.335 292.823,163.168 407.5,150C 292.834,149.5 178.167,149.333 63.5,149.5 Z"/></g>
<g><path style="opacity:1" fill="#fdfefe" d="M 234.5,219.5 C 234.666,225.176 234.499,230.843 234,236.5C 232.895,239.937 230.728,242.437 227.5,244C 217.5,244.667 207.5,244.667 197.5,244C 191.992,238.726 189.992,232.226 191.5,224.5C 191.334,219.489 191.501,214.489 192,209.5C 193.458,207.04 195.291,204.873 197.5,203C 207.5,202.333 217.5,202.333 227.5,203C 233.5,206.844 235.834,212.344 234.5,219.5 Z"/></g>
<g><path style="opacity:1" fill="#fdfefe" d="M 319.5,209.5 C 319.666,218.506 319.5,227.506 319,236.5C 317.613,240.721 314.779,243.388 310.5,244.5C 300.727,244.948 291.061,244.448 281.5,243C 279.383,241.269 277.883,239.102 277,236.5C 276.5,229.174 276.334,221.841 276.5,214.5C 276.668,209.327 279.002,205.494 283.5,203C 293.167,202.333 302.833,202.333 312.5,203C 315.358,204.694 317.691,206.861 319.5,209.5 Z"/></g>
<g><path style="opacity:1" fill="#fefefe" d="M 396.5,202.5 C 399.87,203.432 402.37,205.432 404,208.5C 404.667,218.167 404.667,227.833 404,237.5C 403.167,241 401,243.167 397.5,244C 387.833,244.667 378.167,244.667 368.5,244C 365.619,242.749 363.786,240.583 363,237.5C 362.333,227.833 362.333,218.167 363,208.5C 363.513,207.473 364.013,206.473 364.5,205.5C 365.683,204.496 367.016,203.662 368.5,203C 377.827,202.5 387.161,202.334 396.5,202.5 Z"/></g>
<g><path style="opacity:1" fill="#28ade9" d="M 276.5,214.5 C 276.334,221.841 276.5,229.174 277,236.5C 277.883,239.102 279.383,241.269 281.5,243C 291.061,244.448 300.727,244.948 310.5,244.5C 228.201,252.385 145.867,261.385 63.5,271.5C 63.5,260.833 63.5,250.167 63.5,239.5C 106.135,234.355 148.802,229.355 191.5,224.5C 189.992,232.226 191.992,238.726 197.5,244C 207.5,244.667 217.5,244.667 227.5,244C 230.728,242.437 232.895,239.937 234,236.5C 234.499,230.843 234.666,225.176 234.5,219.5C 248.551,218.124 262.551,216.457 276.5,214.5 Z"/></g>
<g><path style="opacity:1" fill="#26aae8" d="M 447.5,195.5 C 447.5,215.167 447.5,234.833 447.5,254.5C 374.963,262.277 302.63,270.61 230.5,279.5C 229.118,278.199 227.452,277.366 225.5,277C 216.833,276.333 208.167,276.333 199.5,277C 195.65,278.353 192.983,280.853 191.5,284.5C 190.903,283.861 190.07,283.528 189,283.5C 176.142,285.128 163.309,286.795 150.5,288.5C 149.833,295.655 149.167,302.655 148.5,309.5C 148.945,300.06 148.445,290.726 147,281.5C 145.269,279.383 143.102,277.883 140.5,277C 131.833,276.333 123.167,276.333 114.5,277C 111.898,277.883 109.731,279.383 108,281.5C 106.555,290.726 106.055,300.06 106.5,309.5C 105.512,304.36 105.179,299.026 105.5,293.5C 91.4044,294.732 77.4044,296.399 63.5,298.5C 63.5,289.5 63.5,280.5 63.5,271.5C 145.867,261.385 228.201,252.385 310.5,244.5C 314.779,243.388 317.613,240.721 319,236.5C 319.5,227.506 319.666,218.506 319.5,209.5C 334.23,208.271 348.897,206.604 363.5,204.5C 364.107,204.624 364.44,204.957 364.5,205.5C 364.013,206.473 363.513,207.473 363,208.5C 362.333,218.167 362.333,227.833 363,237.5C 363.786,240.583 365.619,242.749 368.5,244C 378.167,244.667 387.833,244.667 397.5,244C 401,243.167 403.167,241 404,237.5C 404.667,227.833 404.667,218.167 404,208.5C 402.37,205.432 399.87,203.432 396.5,202.5C 396.611,201.883 396.944,201.383 397.5,201C 414.154,198.983 430.821,197.15 447.5,195.5 Z"/></g>
<g><path style="opacity:1" fill="#22a5e6" d="M 447.5,254.5 C 447.5,274.167 447.5,293.833 447.5,313.5C 431.469,314.874 415.469,316.54 399.5,318.5C 401.168,316.66 402.668,314.66 404,312.5C 404.95,302.067 404.617,291.734 403,281.5C 401.269,279.383 399.102,277.883 396.5,277C 387.833,276.333 379.167,276.333 370.5,277C 367.063,278.105 364.563,280.272 363,283.5C 362.333,293.167 362.333,302.833 363,312.5C 364.5,315.333 366.667,317.5 369.5,319C 375.157,319.499 380.824,319.666 386.5,319.5C 296.491,330.094 206.491,340.76 116.5,351.5C 114.784,351.629 113.117,351.962 111.5,352.5C 111.083,351.876 110.416,351.543 109.5,351.5C 94.2179,353.66 78.8845,355.327 63.5,356.5C 63.5,337.167 63.5,317.833 63.5,298.5C 77.4044,296.399 91.4044,294.732 105.5,293.5C 105.179,299.026 105.512,304.36 106.5,309.5C 107.07,313.912 109.403,317.078 113.5,319C 123.574,319.923 133.574,319.59 143.5,318C 146.596,315.971 148.262,313.138 148.5,309.5C 149.167,302.655 149.833,295.655 150.5,288.5C 163.309,286.795 176.142,285.128 189,283.5C 190.07,283.528 190.903,283.861 191.5,284.5C 191.077,294.58 191.577,304.58 193,314.5C 194.543,316.378 196.376,317.878 198.5,319C 207.5,319.667 216.5,319.667 225.5,319C 229.896,318.27 232.73,315.77 234,311.5C 234.667,302.5 234.667,293.5 234,284.5C 233.003,282.677 231.836,281.01 230.5,279.5C 302.63,270.61 374.963,262.277 447.5,254.5 Z"/></g>
<g><path style="opacity:1" fill="#fdfefe" d="M 148.5,309.5 C 148.262,313.138 146.596,315.971 143.5,318C 133.574,319.59 123.574,319.923 113.5,319C 109.403,317.078 107.07,313.912 106.5,309.5C 106.055,300.06 106.555,290.726 108,281.5C 109.731,279.383 111.898,277.883 114.5,277C 123.167,276.333 131.833,276.333 140.5,277C 143.102,277.883 145.269,279.383 147,281.5C 148.445,290.726 148.945,300.06 148.5,309.5 Z"/></g>
<g><path style="opacity:1" fill="#fcfdfe" d="M 230.5,279.5 C 231.836,281.01 233.003,282.677 234,284.5C 234.667,293.5 234.667,302.5 234,311.5C 232.73,315.77 229.896,318.27 225.5,319C 216.5,319.667 207.5,319.667 198.5,319C 196.376,317.878 194.543,316.378 193,314.5C 191.577,304.58 191.077,294.58 191.5,284.5C 192.983,280.853 195.65,278.353 199.5,277C 208.167,276.333 216.833,276.333 225.5,277C 227.452,277.366 229.118,278.199 230.5,279.5 Z"/></g>
<g><path style="opacity:1" fill="#fbfdfe" d="M 284.5,276.5 C 293.506,276.334 302.506,276.5 311.5,277C 314.937,278.105 317.437,280.272 319,283.5C 319.667,292.833 319.667,302.167 319,311.5C 318.31,314.196 316.81,316.363 314.5,318C 304.574,319.59 294.574,319.923 284.5,319C 280.667,317.833 278.167,315.333 277,311.5C 276.333,302.5 276.333,293.5 277,284.5C 279.028,281.308 281.528,278.641 284.5,276.5 Z"/></g>
<g><path style="opacity:1" fill="#fdfefe" d="M 399.5,318.5 C 395.215,319.295 390.881,319.628 386.5,319.5C 380.824,319.666 375.157,319.499 369.5,319C 366.667,317.5 364.5,315.333 363,312.5C 362.333,302.833 362.333,293.167 363,283.5C 364.563,280.272 367.063,278.105 370.5,277C 379.167,276.333 387.833,276.333 396.5,277C 399.102,277.883 401.269,279.383 403,281.5C 404.617,291.734 404.95,302.067 404,312.5C 402.668,314.66 401.168,316.66 399.5,318.5 Z"/></g>
<g><path style="opacity:1" fill="#1e9fe3" d="M 447.5,313.5 C 447.5,332.833 447.5,352.167 447.5,371.5C 404.459,376.542 361.459,381.875 318.5,387.5C 319.998,377.114 319.831,366.78 318,356.5C 316.363,354.19 314.196,352.69 311.5,352C 302.167,351.333 292.833,351.333 283.5,352C 280.272,353.563 278.105,356.063 277,359.5C 276.333,368.167 276.333,376.833 277,385.5C 277.564,387.887 278.73,389.887 280.5,391.5C 208.167,399.5 135.833,407.5 63.5,415.5C 63.5,395.833 63.5,376.167 63.5,356.5C 78.8845,355.327 94.2179,353.66 109.5,351.5C 110.416,351.543 111.083,351.876 111.5,352.5C 110.207,354.296 108.707,355.963 107,357.5C 106.048,368.265 106.381,378.932 108,389.5C 109.731,391.617 111.898,393.117 114.5,394C 123.167,394.667 131.833,394.667 140.5,394C 143.937,392.895 146.437,390.728 148,387.5C 148.667,377.5 148.667,367.5 148,357.5C 146.039,354.865 143.539,353.031 140.5,352C 132.507,351.5 124.507,351.334 116.5,351.5C 206.491,340.76 296.491,330.094 386.5,319.5C 390.881,319.628 395.215,319.295 399.5,318.5C 415.469,316.54 431.469,314.874 447.5,313.5 Z"/></g>
<g><path style="opacity:1" fill="#fdfefe" d="M 116.5,351.5 C 124.507,351.334 132.507,351.5 140.5,352C 143.539,353.031 146.039,354.865 148,357.5C 148.667,367.5 148.667,377.5 148,387.5C 146.437,390.728 143.937,392.895 140.5,394C 131.833,394.667 123.167,394.667 114.5,394C 111.898,393.117 109.731,391.617 108,389.5C 106.381,378.932 106.048,368.265 107,357.5C 108.707,355.963 110.207,354.296 111.5,352.5C 113.117,351.962 114.784,351.629 116.5,351.5 Z"/></g>
<g><path style="opacity:1" fill="#fbfdfe" d="M 198.5,351.5 C 207.506,351.334 216.506,351.5 225.5,352C 229.896,352.73 232.73,355.23 234,359.5C 241.167,389.667 229.667,401.167 199.5,394C 195.23,392.73 192.73,389.896 192,385.5C 191.333,376.5 191.333,367.5 192,358.5C 193.694,355.642 195.861,353.309 198.5,351.5 Z"/></g>
<g><path style="opacity:1" fill="#fbfdfe" d="M 318.5,387.5 C 317.32,390.845 314.987,393.011 311.5,394C 302.5,394.667 293.5,394.667 284.5,394C 283.016,393.338 281.683,392.504 280.5,391.5C 278.73,389.887 277.564,387.887 277,385.5C 276.333,376.833 276.333,368.167 277,359.5C 278.105,356.063 280.272,353.563 283.5,352C 292.833,351.333 302.167,351.333 311.5,352C 314.196,352.69 316.363,354.19 318,356.5C 319.831,366.78 319.998,377.114 318.5,387.5 Z"/></g>
<g><path style="opacity:1" fill="#199ae1" d="M 447.5,371.5 C 447.5,382.5 447.5,393.5 447.5,404.5C 324.677,418.554 202.01,432.887 79.5,447.5C 71.5584,445.392 66.3917,440.392 64,432.5C 63.5006,426.843 63.3339,421.176 63.5,415.5C 135.833,407.5 208.167,399.5 280.5,391.5C 281.683,392.504 283.016,393.338 284.5,394C 293.5,394.667 302.5,394.667 311.5,394C 314.987,393.011 317.32,390.845 318.5,387.5C 361.459,381.875 404.459,376.542 447.5,371.5 Z"/></g>
<g><path style="opacity:0.999" fill="#1797e0" d="M 447.5,404.5 C 447.666,414.172 447.5,423.839 447,433.5C 444.406,440.428 439.573,444.928 432.5,447C 314.834,447.5 197.167,447.667 79.5,447.5C 202.01,432.887 324.677,418.554 447.5,404.5 Z"/></g>
</svg>
