<svg xmlns="http://www.w3.org/2000/svg" width="14" height="14" viewBox="0 0 14 14" fill="none">
  <path d="M2.33203 4.08333H11.6654M2.91536 4.08333L3.4987 11.0833C3.4987 11.3928 3.62161 11.6895 3.84041 11.9083C4.0592 12.1271 4.35595 12.25 4.66536 12.25H9.33203C9.64145 12.25 9.9382 12.1271 10.157 11.9083C10.3758 11.6895 10.4987 11.3928 10.4987 11.0833L11.082 4.08333M5.2487 4.08333V2.33333C5.2487 2.17862 5.31016 2.03025 5.41955 1.92085C5.52895 1.81146 5.67732 1.75 5.83203 1.75H8.16537C8.32007 1.75 8.46845 1.81146 8.57784 1.92085C8.68724 2.03025 8.7487 2.17862 8.7487 2.33333V4.08333M5.83203 7L8.16537 9.33333M6.9987 8.16667L5.83203 9.33333M1.75 1.75L12.25 12.25" stroke="#FF7222" stroke-linecap="round" stroke-linejoin="round"/>
</svg>