<svg xmlns="http://www.w3.org/2000/svg" width="14" height="14" viewBox="0 0 14 14" fill="none">
<path d="M6.06216 1.53416C6.38434 0.663593 7.61566 0.663591 7.93784 1.53416L9.00134 4.40789C9.10263 4.68158 9.31842 4.89737 9.59211 4.99866L12.4658 6.06216C13.3364 6.38434 13.3364 7.61566 12.4658 7.93784L9.59211 9.00134C9.31842 9.10263 9.10263 9.31842 9.00134 9.59211L7.93784 12.4658C7.61566 13.3364 6.38434 13.3364 6.06216 12.4658L4.99866 9.59211C4.89737 9.31842 4.68158 9.10263 4.40789 9.00134L1.53416 7.93784C0.663593 7.61566 0.663591 6.38434 1.53416 6.06216L4.40789 4.99866C4.68158 4.89737 4.89737 4.68158 4.99866 4.40789L6.06216 1.53416Z" fill="currentColor"/>
</svg>