<svg preserveAspectRatio="none" width="100%" height="100%" overflow="visible" style="display: block;" viewBox="0 0 21.8529 20.8291" fill="none" xmlns="http://www.w3.org/2000/svg">
<path id="Union" d="M7.56177 12.375C9.85775 12.375 11.9839 13.1432 13.7385 14.4404C15.0286 15.3944 15.356 16.8384 14.969 18.0791H18.4436C18.8262 18.0585 19.0148 17.995 19.0989 17.9531C19.0949 17.8812 19.0718 17.7266 18.9465 17.4668C18.7448 17.0483 18.3836 16.5921 17.9719 16.25C17.7705 16.0826 17.5819 15.9633 17.426 15.8906C17.2682 15.8171 17.19 15.8127 17.1868 15.8125V13.0625C18.1759 13.0625 19.0867 13.6004 19.7297 14.1348C20.4114 14.7013 21.0335 15.4624 21.4241 16.2725C21.7897 17.0311 22.0936 18.1461 21.5803 19.1904C21.023 20.3237 19.8247 20.7654 18.5549 20.8271L18.5217 20.8291H11.5872V20.6182C11.5322 20.6205 11.4769 20.625 11.4211 20.625H3.70239C2.10636 20.6249 0.819051 19.6708 0.277588 18.418C-0.287504 17.1103 -0.0241157 15.4825 1.38501 14.4404C3.13962 13.1431 5.2658 12.375 7.56177 12.375ZM7.56177 15.125C5.89402 15.125 4.33401 15.6797 3.01978 16.6514C2.83273 16.7898 2.7794 16.9126 2.76099 16.9873C2.73982 17.0736 2.74306 17.1907 2.802 17.3271C2.92436 17.61 3.24339 17.8749 3.70239 17.875H11.4211C11.8802 17.875 12.1991 17.61 12.3215 17.3271C12.3805 17.1907 12.3837 17.0736 12.3625 16.9873C12.3441 16.9125 12.2909 16.7898 12.1038 16.6514C10.7895 15.6797 9.22953 15.125 7.56177 15.125ZM8.07446 0C11.0155 0 13.3996 2.38417 13.3997 5.3252C13.3997 8.26626 11.0155 10.6504 8.07446 10.6504C5.13349 10.6503 2.74927 8.2662 2.74927 5.3252C2.74931 2.38423 5.13351 9.87628e-05 8.07446 0ZM15.4827 1.01953C17.86 1.01982 19.7871 2.94781 19.7874 5.3252C19.7872 7.70263 17.8601 9.6296 15.4827 9.62988C15.1773 9.62988 14.8794 9.59755 14.592 9.53711V6.59863C14.8445 6.77536 15.1511 6.87987 15.4827 6.87988C16.3413 6.8796 17.0372 6.18385 17.0374 5.3252C17.0371 4.46659 16.3413 3.76982 15.4827 3.76953C15.1514 3.76955 14.8444 3.87416 14.592 4.05078V1.1123C14.8794 1.05187 15.1774 1.01954 15.4827 1.01953ZM8.07446 2.75C6.65229 2.7501 5.49931 3.90301 5.49927 5.3252C5.49927 6.74741 6.65227 7.90029 8.07446 7.90039C9.49674 7.90039 10.6497 6.74748 10.6497 5.3252C10.6496 3.90295 9.49672 2.75 8.07446 2.75Z" fill="var(--fill-0, #4A38F5)"/>
</svg>
