<svg xmlns="http://www.w3.org/2000/svg" fill="none" viewBox="0 0 126 23">
  <path stroke="#000" stroke-dasharray="4.71 4.71" stroke-linecap="round" stroke-width="1.768" d="M125 11H1"/>
  <g filter="url(#a)">
    <circle cx="63" cy="11" r="10.667" fill="#fff" style="mix-blend-mode:normal"/>
    <circle cx="63" cy="11" r="10.203" stroke="#000" stroke-width=".928"/>
  </g>
  <path fill="#000" d="M60.38 8.425a3.758 3.758 0 0 1 5.223-.022l-.955.935a.54.54 0 0 0-.12.597c.085.205.29.337.514.337h2.968a.55.55 0 0 0 .557-.547V6.811a.546.546 0 0 0-.343-.506.565.565 0 0 0-.608.119l-.964.947c-2.032-1.97-5.304-1.963-7.323.023a5.06 5.06 0 0 0-1.225 1.908.725.725 0 0 0 .453.929.746.746 0 0 0 .946-.444 3.6 3.6 0 0 1 .876-1.362Zm-2.944 3.85v2.915c0 .221.135.422.344.506a.565.565 0 0 0 .607-.118l.965-.948c2.031 1.97 5.303 1.963 7.323-.023a5.077 5.077 0 0 0 1.227-1.905.725.725 0 0 0-.453-.93.746.746 0 0 0-.946.445 3.598 3.598 0 0 1-.876 1.361 3.758 3.758 0 0 1-5.225.023l.953-.938a.54.54 0 0 0 .12-.597.556.556 0 0 0-.514-.337h-2.968a.55.55 0 0 0-.556.547Z"/>
  <defs>
    <filter id="a" width="22.261" height="22.261" x="51.406" y=".333" color-interpolation-filters="sRGB" filterUnits="userSpaceOnUse">
      <feOffset dx="-.93" dy=".928"/>
      <feColorMatrix values="0 0 0 0 0 0 0 0 0 0 0 0 0 0 0 0 0 0 1 0"/>
      <feBlend in="SourceGraphic" result="shape"/>
    </filter>
  </defs>
</svg>