<?xml version="1.0" encoding="UTF-8"?>
<svg fill="none" viewBox="0 0 136 136" xmlns="http://www.w3.org/2000/svg">
<g clip-path="url(#a)">
<path d="m136 2.2888e-5h-136l1.4448e-4 136h136v-136zm-108.73 50.64c0-7.43 6.03-13.46 13.46-13.46h25.91c0.38 0 0.73 0.23 0.89 0.58s0.09 0.76-0.17 1.05l-5.68 6.17c-0.99 1.07-2.38 1.69-3.84 1.69h-17.04c-2.23 0-4.04 1.81-4.04 4.04v10.18c0 1.31-1.06 2.37-2.37 2.37h-4.74c-1.31 0-2.37-1.06-2.37-2.37v-10.25h-0.01zm80.61 34.72c0 7.43-6.03 13.46-13.46 13.46h-11.01c-7.43 0-13.46-6.0299-13.46-13.46v-19.27c0-1.31 0.49-2.57 1.38-3.54l6.42-6.97c0.27-0.29 0.69-0.39 1.07-0.25 0.37 0.15 0.62 0.4999 0.62 0.8999v29.07c0 2.23 1.81 4.04 4.04 4.04h10.88c2.23 0 4.04-1.81 4.04-4.04v-34.59c0-2.23-1.81-4.04-4.04-4.04h-12.65c-1.45 0-2.83 0.61-3.82 1.67l-37.73 41h22.67c1.31 0 2.37 1.06 2.37 2.37v4.74c0 1.31-1.06 2.3699-2.37 2.3699h-30.55c-2.77 0-5.02-2.2499-5.02-5.0199v-2.5101c0-1.26 0.47-2.4699 1.33-3.3999l42.3-45.95c2.8-3.04 6.73-4.76 10.86-4.76h12.66c7.43 0 13.46 6.03 13.46 13.46v34.72h0.01z" fill="#000"/>
<path d="m27.27 50.64c0-7.43 6.03-13.46 13.46-13.46h25.91c0.38 0 0.73 0.23 0.89 0.58s0.09 0.76-0.17 1.05l-5.68 6.17c-0.99 1.07-2.38 1.69-3.84 1.69h-17.04c-2.23 0-4.04 1.81-4.04 4.04v10.18c0 1.31-1.06 2.37-2.37 2.37h-4.74c-1.31 0-2.37-1.06-2.37-2.37v-10.25h-0.01z" fill="#fff"/>
<path d="m107.88 85.36c0 7.43-6.03 13.46-13.46 13.46h-11.01c-7.43 0-13.46-6.0299-13.46-13.46v-19.27c0-1.31 0.49-2.57 1.38-3.54l6.42-6.97c0.27-0.29 0.69-0.39 1.07-0.25 0.37 0.15 0.62 0.4999 0.62 0.8999v29.07c0 2.23 1.81 4.04 4.04 4.04h10.88c2.23 0 4.04-1.81 4.04-4.04v-34.59c0-2.23-1.81-4.04-4.04-4.04h-12.65c-1.45 0-2.83 0.61-3.82 1.67l-37.73 41h22.67c1.31 0 2.37 1.06 2.37 2.37v4.74c0 1.31-1.06 2.3699-2.37 2.3699h-30.55c-2.77 0-5.02-2.2499-5.02-5.0199v-2.5101c0-1.26 0.47-2.4699 1.33-3.3999l42.3-45.95c2.8-3.04 6.73-4.76 10.86-4.76h12.66c7.43 0 13.46 6.03 13.46 13.46v34.72h0.01z" fill="#fff"/>
</g>
<defs>
<clipPath id="a">
<rect width="136" height="136" fill="#fff"/>
</clipPath>
</defs>
</svg>
