<svg xmlns="http://www.w3.org/2000/svg" viewBox="0 0 48 48" width="48" height="48">
  <rect width="48" height="48" rx="12" fill="#25D366"/>
  <path
    d="M24 10c-7.18 0-13 5.66-13 12.64 0 2.53.77 4.88 2.09 6.86L11 38l8.83-1.98a13.4 13.4 0 0 0 4.17.66c7.18 0 13-5.66 13-12.64S31.18 10 24 10Z"
    fill="#fff"
  />
  <path
    d="M20.1 17.6c-.32-.7-.65-.72-.95-.73l-.81-.01c-.28 0-.74.1-1.13.52-.39.42-1.48 1.4-1.48 3.4s1.52 3.95 1.73 4.22c.21.28 2.93 4.54 7.25 6.19 3.59 1.37 4.32 1.1 5.1 1.03.78-.07 2.51-.99 2.86-1.95.35-.96.35-1.78.25-1.95-.11-.17-.39-.28-.81-.48-.42-.2-2.51-1.2-2.9-1.34-.39-.14-.67-.2-.95.21-.28.41-1.09 1.33-1.34 1.6-.25.28-.49.31-.91.11-.42-.2-1.79-.64-3.41-2.04-1.26-1.09-2.11-2.43-2.36-2.84-.25-.41-.03-.63.18-.84.19-.18.42-.48.64-.72.21-.24.28-.41.42-.69.14-.28.07-.52-.04-.72-.1-.2-.92-2.2-1.3-3.0Z"
    fill="#25D366"
  />
</svg>
