<?xml version="1.0" encoding="utf-8"?>
<svg xmlns="http://www.w3.org/2000/svg" width="676" height="232" viewBox="0 0 676 232" fill="none">
<path d="M545.35 202V30H608.499C627.501 30 642.162 34.0952 652.482 42.2857C662.802 50.3124 667.962 61.3695 667.962 75.4571C667.962 85.7771 665.259 94.0495 659.853 100.274C654.611 106.335 647.485 110.594 638.476 113.051C645.356 114.198 651.499 116.328 656.905 119.44C662.31 122.552 666.569 126.893 669.682 132.463C672.958 137.869 674.596 144.667 674.596 152.857C674.596 168.091 669.108 180.131 658.133 188.977C647.322 197.659 631.514 202 610.71 202H545.35ZM573.607 178.166H610.956C622.259 178.166 630.859 175.954 636.756 171.531C642.653 166.945 645.602 160.638 645.602 152.611C645.602 144.257 642.571 137.787 636.51 133.2C630.449 128.613 621.931 126.32 610.956 126.32H573.607V178.166ZM573.607 102.977H609.236C619.064 102.977 626.6 100.766 631.842 96.3429C637.084 91.92 639.705 85.8591 639.705 78.16C639.705 70.461 637.084 64.4819 631.842 60.2229C626.6 55.8 619.064 53.5886 609.236 53.5886H573.607V102.977Z" fill="white"/>
<path d="M405.588 202V179.851L472.534 122.86C477.843 118.381 482.571 113.984 486.719 109.67C490.867 105.357 494.102 100.877 496.425 96.2316C498.748 91.4202 499.909 86.277 499.909 80.8019C499.909 70.8472 496.84 63.2153 490.701 57.9061C484.728 52.597 476.764 49.9424 466.81 49.9424C456.855 49.9424 448.808 53.0947 442.67 59.3993C436.531 65.704 433.461 74.2484 433.461 85.0326V88.019H405.837V83.5394C405.837 72.4234 408.326 62.6346 413.303 54.1731C418.281 45.5457 425.332 38.7434 434.457 33.766C443.748 28.7887 454.532 26.3 466.81 26.3C479.917 26.3 490.95 28.5398 499.909 33.0195C509.034 37.4991 515.919 43.7207 520.565 51.6845C525.376 59.6482 527.782 68.9392 527.782 79.5576C527.782 88.1849 526.206 95.8998 523.054 102.702C519.901 109.339 515.505 115.643 509.864 121.616C504.389 127.423 498.084 133.313 490.95 139.286L444.66 177.86H529.026V202H405.588Z" fill="white"/>
<path d="M274 202V30H386.292V55.0629H302.257V102.731H371.549V127.057H302.257V176.937H389.24V202H274Z" fill="white"/>
<path fill-rule="evenodd" clip-rule="evenodd" d="M188.212 157.998C186.672 157.998 185.71 159.665 186.48 160.998L202.585 188.894C203.476 190.437 202.056 192.287 200.335 191.826L151.491 178.737C149.357 178.165 147.163 179.432 146.592 181.566L133.504 230.411C133.042 232.132 130.731 232.436 129.84 230.893L113.732 202.992C112.962 201.659 111.037 201.659 110.268 202.992L94.1595 230.893C93.2686 232.436 90.9568 232.132 90.4956 230.411L77.4075 181.566C76.8357 179.432 74.6423 178.165 72.5085 178.737L23.664 191.826C21.9429 192.287 20.5234 190.437 21.4143 188.894L37.5192 160.998C38.289 159.665 37.3267 157.998 35.7871 157.998L3.57893 157.998C1.79713 157.998 0.904821 155.844 2.16476 154.584L37.9218 118.827C39.484 117.265 39.484 114.733 37.9218 113.171L2.16478 77.4133C0.904844 76.1533 1.7972 73.999 3.57902 73.9991L35.7837 73.9995C37.3233 73.9995 38.2856 72.3328 37.5158 70.9995L21.4143 43.11C20.5234 41.5669 21.9429 39.717 23.664 40.1781L72.5085 53.2665C74.6423 53.8383 76.8357 52.572 77.4075 50.4381L90.4956 1.59292C90.9568 -0.128187 93.2686 -0.432531 94.1595 1.11058L110.267 29.0111C111.037 30.3445 112.962 30.3445 113.732 29.0111L129.84 1.11058C130.73 -0.432532 133.042 -0.128189 133.503 1.59292L146.592 50.4381C147.163 52.572 149.357 53.8383 151.491 53.2665L200.335 40.1781C202.056 39.717 203.476 41.5669 202.585 43.11L186.483 70.9995C185.713 72.3328 186.676 73.9995 188.215 73.9995L220.421 73.9991C222.203 73.999 223.095 76.1533 221.835 77.4133L186.078 113.171C184.516 114.733 184.516 117.265 186.078 118.827L221.835 154.584C223.095 155.844 222.203 157.998 220.421 157.998L188.212 157.998ZM175.919 81.3306C177.366 79.8837 175.963 77.4549 173.987 77.9845L130.491 89.6396C128.357 90.2114 126.164 88.9451 125.592 86.8112L113.931 43.293C113.402 41.3166 110.597 41.3166 110.068 43.293L98.4069 86.8112C97.8351 88.9451 95.6418 90.2114 93.5079 89.6396L50.0136 77.9849C48.0371 77.4553 46.6348 79.8841 48.0817 81.331L79.9216 113.171C81.4837 114.733 81.4837 117.266 79.9216 118.828L48.0742 150.675C46.6273 152.122 48.0296 154.55 50.0061 154.021L93.5079 142.364C95.6418 141.792 97.8351 143.059 98.4069 145.192L110.068 188.711C110.597 190.687 113.402 190.687 113.931 188.711L125.592 145.192C126.164 143.059 128.357 141.792 130.491 142.364L173.994 154.021C175.971 154.551 177.373 152.122 175.926 150.675L144.079 118.828C142.516 117.266 142.516 114.733 144.079 113.171L175.919 81.3306Z" fill="white"/>
</svg>