<svg height="800" preserveAspectRatio="xMidYMid" viewBox="0 -28.5 256 256" width="800" xmlns="http://www.w3.org/2000/svg"><path d="m216.856339 16.5966031c-16.571337-7.75331645-34.290195-13.3881043-52.814775-16.5966031-2.275041 4.11318106-4.93294 9.64549908-6.765465 14.0464379-19.692104-2.9614483-39.203132-2.9614483-58.5330827 0-1.8321746-4.40093882-4.5504325-9.93325684-6.8458268-14.0464379-18.5445827 3.2084988-36.2837946 8.86399117-52.8551312 16.6376612-33.42453537 50.5088528-42.4853774 99.7631518-37.95494761 148.3180598 22.16890891 16.555194 43.65325271 26.611976 64.77502181 33.192855 5.2150826-7.17745 9.8662303-14.807241 13.8730814-22.848315-7.6311949-2.899686-14.9402415-6.478059-21.8464273-10.632298 1.8321746-1.357374 3.6243438-2.776511 5.3558032-4.236706 42.1228202 19.70193 87.8903382 19.70193 129.5099332 0 1.751813 1.460195 3.543631 2.879332 5.355803 4.236706-6.926539 4.174593-14.255589 7.752966-21.886784 10.653002 4.006851 8.02037 8.637996 15.670866 13.873082 22.847965 21.142122-6.580879 42.646399-16.637311 64.815325-33.213209 5.315798-56.28752-9.080862-105.0894778-38.05561-148.3591179zm-131.3824638 118.4982869c-12.6448471 0-23.0146535-11.804735-23.0146535-26.179989 0-14.3752538 10.1483733-26.2003423 23.0146535-26.2003423 12.8666312 0 23.2360868 11.804384 23.0146538 26.2003423.020002 14.375254-10.1480226 26.179989-23.0146538 26.179989zm85.0513618 0c-12.644847 0-23.014653-11.804735-23.014653-26.179989 0-14.3752538 10.148022-26.2003423 23.014653-26.2003423 12.866281 0 23.236087 11.804384 23.014654 26.2003423 0 14.375254-10.148373 26.179989-23.014654 26.179989z" fill="#5865f2"/></svg>