<?xml version="1.0" encoding="iso-8859-1"?>

<!DOCTYPE svg PUBLIC "-//W3C//DTD SVG 1.1//EN" "http://www.w3.org/Graphics/SVG/1.1/DTD/svg11.dtd">
<!-- Uploaded to: SVG Repo, www.svgrepo.com, Generator: SVG Repo Mixer Tools -->
<svg version="1.1" id="_x36_" xmlns="http://www.w3.org/2000/svg" xmlns:xlink="http://www.w3.org/1999/xlink" 
	 viewBox="0 0 512 512"  xml:space="preserve">
<g>
	<g>
		<g>
			<path style="fill:#504F4F;" d="M512,28.891v308.708c0,0.986-0.071,1.973-0.141,2.959c-0.07,0.916-0.212,1.832-0.423,2.678
				c-2.819,13.177-14.939,23.112-29.454,23.112H30.018c-1.762,0-3.523-0.141-5.214-0.423c-12.754-2.184-22.76-12.049-24.522-24.522
				c-0.071-0.493-0.141-1.057-0.141-1.55C0,339.078,0,338.374,0,337.599V28.891c0-1.903,0.212-3.805,0.564-5.638
				C3.312,10.006,15.502,0,30.018,0h451.964c1.057,0,2.184,0.071,3.241,0.141c1.057,0.141,2.044,0.282,3.1,0.493
				c11.838,2.466,21.069,11.697,23.183,23.183c0.141,0.704,0.282,1.409,0.352,2.114C511.929,26.918,512,27.904,512,28.891z"/>
			<path style="fill:#C2C1C1;" d="M80.119,0v366.419H28.82c-1.268,0-2.537-0.071-3.805-0.282
				c-12.895-1.691-23.042-11.909-24.733-24.733c-0.071-0.493-0.141-1.057-0.141-1.55C0,339.078,0,338.374,0,337.599V28.891
				c0-1.903,0.212-3.805,0.564-5.638C3.171,10.006,14.798,0,28.82,0H80.119z"/>
			<path style="fill:#C2C1C1;" d="M512,28.891v308.708c0,0.986-0.071,1.973-0.141,2.959c-1.48,14.445-13.741,25.861-28.679,25.861
				h-51.298V0h51.298c1.691,0,3.382,0.141,4.933,0.423c11.979,2.114,21.351,11.556,23.465,23.465
				c0.141,0.705,0.211,1.339,0.282,2.043C511.929,26.918,512,27.904,512,28.891z"/>
		</g>
		<g>
			<path style="fill:#FFFFFF;" d="M246.925,28.905v313.198H62.734c-5.9,0-11.303-2.148-15.463-5.674
				c-5.176-4.385-8.477-10.941-8.477-18.265V52.844c0-13.224,10.715-23.939,23.94-23.939H246.925z"/>
			<g>
				<path style="fill:#FFFFFF;" d="M254.348,28.905v313.198h184.191c5.9,0,11.303-2.148,15.462-5.674
					c5.176-4.385,8.477-10.941,8.477-18.265V52.844c0-13.224-10.715-23.939-23.94-23.939H254.348z"/>
			</g>
		</g>
		<polygon style="fill:#E14D4B;" points="406.02,0 406.02,91.182 373.818,73.707 341.545,91.182 341.545,0 		"/>
		<path style="fill:#FFFFFF;" d="M387.656,36.571h-11.063v-0.07l-3.03-9.372l-0.423-1.409h-0.141l-0.423,1.409l-3.1,9.442h-11.063
			v0.141l8.949,6.624l-1.127,3.523l-2.396,7.328l0.141,0.071l9.09-6.765l9.02,6.765l0.141-0.071l-3.523-10.851l8.949-6.624V36.571z"
			/>
		<rect x="73.178" y="75.654" style="fill:#D8D8D8;" width="145.522" height="72.479"/>
		<rect x="282.812" y="102.763" style="fill:#D8D8D8;" width="42.42" height="41.549"/>
		<rect x="335.706" y="102.763" style="fill:#D8D8D8;" width="42.42" height="41.549"/>
		<rect x="388.6" y="103.253" style="fill:#D8D8D8;" width="42.42" height="41.549"/>
		<rect x="73.178" y="170.951" style="fill:#D8D8D8;" width="145.522" height="6.782"/>
		<rect x="73.178" y="207.12" style="fill:#D8D8D8;" width="145.522" height="6.782"/>
		<rect x="73.178" y="250.071" style="fill:#D8D8D8;" width="145.522" height="6.782"/>
		<rect x="73.178" y="283.98" style="fill:#D8D8D8;" width="145.522" height="6.782"/>
		<g>
			<rect x="283.411" y="170.951" style="fill:#D8D8D8;" width="145.522" height="6.782"/>
			<rect x="283.411" y="207.12" style="fill:#D8D8D8;" width="145.522" height="6.782"/>
			<rect x="283.411" y="250.071" style="fill:#D8D8D8;" width="145.522" height="6.782"/>
			<rect x="283.411" y="283.98" style="fill:#D8D8D8;" width="145.522" height="6.782"/>
		</g>
	</g>
	<path style="opacity:0.03;fill:#040000;" d="M507.842,28.82v308.708c0,0.423-0.141,0.704-0.141,1.127
		c-0.563,14.868-12.402,26.988-27.199,27.693c-0.493,0.071-0.987,0.071-1.48,0.071h-51.369v-0.071H49.255l30.864-30.864
		l44.746-44.745l6.764-6.765l27.129-27.129l6.764-6.765l36.149-36.149l6.835-6.835l45.873-45.873l30.934-30.934l27.552-27.552
		l54.117-54.117l10.358-10.288v-0.071l9.372-9.372L406.02,9.583L415.603,0h63.419c3.805,0,7.399,0.775,10.781,2.114
		c7.117,2.889,12.825,8.597,15.714,15.714c1.268,3.03,2.044,6.342,2.184,9.794C507.701,28.045,507.842,28.468,507.842,28.82z"/>
</g>
</svg>