<svg width="294" height="47" viewBox="0 0 294 47" fill="none" xmlns="http://www.w3.org/2000/svg">
<path d="M28.5807 14.7598H24.8407C24.6084 14.7933 24.3715 14.7721 24.1487 14.698C23.926 14.6239 23.7236 14.4989 23.5576 14.333C23.3916 14.167 23.2666 13.9646 23.1925 13.7418C23.1184 13.5191 23.0973 13.2821 23.1307 13.0498V10.5198C23.1494 9.96908 23.0582 9.42019 22.8625 8.90512C22.6668 8.39004 22.3704 7.91911 21.9907 7.51977C21.6462 7.13327 21.2264 6.82124 20.7569 6.60285C20.2874 6.38446 19.7783 6.26431 19.2607 6.24977H11.0007C10.4882 6.24521 9.98085 6.35297 9.5144 6.56547C9.04794 6.77796 8.63369 7.09004 8.30075 7.47977C7.90795 7.87247 7.59904 8.34088 7.39276 8.85658C7.18648 9.37228 7.08714 9.92452 7.10075 10.4798V35.7998C7.08431 36.3502 7.17653 36.8985 7.37214 37.4132C7.56775 37.928 7.86291 38.3992 8.24075 38.7998C8.5941 39.1781 9.02141 39.4799 9.49617 39.6863C9.97094 39.8927 10.483 39.9994 11.0007 39.9998H19.3007C19.8044 40.0029 20.3027 39.8973 20.7618 39.6902C21.2208 39.4831 21.6298 39.1794 21.9607 38.7998C22.3553 38.4079 22.6661 37.9399 22.8741 37.4242C23.0821 36.9084 23.1831 36.3557 23.1707 35.7998V33.1998C23.1433 32.9712 23.1691 32.7393 23.2463 32.5224C23.3234 32.3055 23.4498 32.1094 23.6155 31.9496C23.7811 31.7897 23.9816 31.6704 24.2011 31.6011C24.4207 31.5317 24.6533 31.5141 24.8807 31.5498H28.5507C28.7782 31.5141 29.0108 31.5317 29.2304 31.6011C29.4499 31.6704 29.6503 31.7897 29.816 31.9496C29.9817 32.1094 30.1081 32.3055 30.1852 32.5224C30.2624 32.7393 30.2882 32.9712 30.2607 33.1998V35.7998C30.2936 37.209 30.0282 38.6093 29.4819 39.9087C28.9356 41.2081 28.1207 42.3774 27.0907 43.3398C24.9891 45.3245 22.1907 46.4022 19.3007 46.3398H11.0007C8.13026 46.3928 5.35395 45.3153 3.27075 43.3398C2.21232 42.3947 1.37175 41.231 0.807162 39.9291C0.242574 38.6273 -0.0325706 37.2184 0.000749247 35.7998V10.5198C-0.0292989 9.11389 0.2375 7.71747 0.783728 6.42169C1.32996 5.12591 2.14333 3.95989 3.17075 2.99977C5.29327 1.02273 8.10057 -0.0528628 11.0007 -0.000225301H19.2407C22.1321 -0.070255 24.9333 1.00851 27.0308 2.99977C28.0858 3.94597 28.9222 5.11059 29.4818 6.41269C30.0413 7.71478 30.3105 9.12311 30.2708 10.5398V13.1398C30.2926 13.3641 30.2633 13.5904 30.185 13.8017C30.1067 14.0131 29.9815 14.2039 29.8188 14.3599C29.6562 14.5158 29.4602 14.6328 29.2458 14.7021C29.0313 14.7714 28.8039 14.7911 28.5807 14.7598ZM39.7207 9.26978H36.0007C35.7733 9.30542 35.5407 9.28786 35.3211 9.2185C35.1016 9.14913 34.9011 9.02983 34.7355 8.86997C34.5698 8.71011 34.4434 8.51402 34.3663 8.29711C34.2891 8.0802 34.2633 7.84836 34.2907 7.61977V4.61977C34.2683 4.39354 34.2978 4.16516 34.3772 3.95212C34.4566 3.73907 34.5837 3.54702 34.7487 3.39066C34.9137 3.23431 35.1124 3.11779 35.3294 3.05004C35.5464 2.98228 35.7761 2.96509 36.0007 2.99977H39.7407C39.9682 2.96413 40.2008 2.98168 40.4203 3.05105C40.6399 3.12042 40.8403 3.23972 41.006 3.39958C41.1717 3.55944 41.2981 3.75552 41.3752 3.97244C41.4524 4.18935 41.4782 4.42119 41.4507 4.64978V7.64978C41.4739 7.87796 41.4442 8.10843 41.3637 8.32322C41.2832 8.53801 41.1543 8.73132 40.9868 8.8881C40.8194 9.04487 40.6181 9.16088 40.3985 9.22708C40.1788 9.29329 39.9469 9.3079 39.7207 9.26978ZM39.7207 46.2698H36.0007C35.7742 46.3051 35.5426 46.2876 35.3239 46.2188C35.1052 46.15 34.9054 46.0316 34.7399 45.8729C34.5745 45.7142 34.4478 45.5195 34.3699 45.3039C34.292 45.0883 34.2649 44.8576 34.2907 44.6298V14.8898C34.2633 14.6612 34.2891 14.4294 34.3663 14.2124C34.4434 13.9955 34.5698 13.7994 34.7355 13.6396C34.9011 13.4797 35.1016 13.3604 35.3211 13.2911C35.5407 13.2217 35.7733 13.2041 36.0007 13.2398H39.7407C39.9682 13.2041 40.2008 13.2217 40.4203 13.2911C40.6399 13.3604 40.8403 13.4797 41.006 13.6396C41.1717 13.7994 41.2981 13.9955 41.3752 14.2124C41.4524 14.4294 41.4782 14.6612 41.4507 14.8898V44.6698C41.4773 44.8995 41.45 45.1323 41.371 45.3497C41.292 45.5671 41.1635 45.7631 40.9957 45.9222C40.8278 46.0813 40.6252 46.1992 40.404 46.2665C40.1827 46.3337 39.9488 46.3486 39.7207 46.3098V46.2698ZM63.2907 44.9998C63.1941 45.405 62.9552 45.7621 62.6175 46.0062C62.2799 46.2503 61.8659 46.3651 61.4507 46.3298H56.8207C56.3981 46.3676 55.9756 46.2549 55.628 46.0116C55.2803 45.7682 55.0299 45.4099 54.9207 44.9998L45.3607 15.0998C45.2987 14.9619 45.2745 14.8101 45.2907 14.6598C45.2907 13.6598 45.8007 13.1998 46.8807 13.1998H50.4207C50.8367 13.1602 51.2528 13.2733 51.5914 13.5181C51.93 13.7628 52.1679 14.1224 52.2607 14.5298L59.1107 35.8798L66.0007 14.5098C66.1167 14.1037 66.3689 13.7499 66.7148 13.5077C67.0608 13.2656 67.4795 13.1498 67.9007 13.1798H71.3807C72.4607 13.1798 72.9707 13.6898 72.9707 14.6398C72.987 14.7901 72.9628 14.9419 72.9007 15.0798L63.2907 44.9998ZM82.1208 9.26978H78.3807C78.1533 9.30542 77.9207 9.28786 77.7011 9.2185C77.4816 9.14913 77.2812 9.02983 77.1155 8.86997C76.9498 8.71011 76.8234 8.51402 76.7463 8.29711C76.6691 8.0802 76.6432 7.84836 76.6707 7.61977V4.61977C76.6482 4.39354 76.6778 4.16516 76.7572 3.95212C76.8366 3.73907 76.9636 3.54702 77.1287 3.39066C77.2937 3.23431 77.4924 3.11779 77.7094 3.05004C77.9264 2.98228 78.1561 2.96509 78.3807 2.99977H82.1208C82.3482 2.96413 82.5808 2.98168 82.8003 3.05105C83.0199 3.12042 83.2203 3.23972 83.386 3.39958C83.5517 3.55944 83.6781 3.75552 83.7552 3.97244C83.8324 4.18935 83.8582 4.42119 83.8307 4.64978V7.64978C83.8532 7.87601 83.8237 8.10439 83.7443 8.31743C83.6649 8.53047 83.5378 8.72253 83.3728 8.87889C83.2078 9.03524 83.0091 9.15176 82.7921 9.21951C82.5751 9.28727 82.3454 9.30446 82.1208 9.26978ZM82.1208 46.2698H78.3807C78.1542 46.3051 77.9226 46.2876 77.7039 46.2188C77.4852 46.15 77.2854 46.0316 77.1199 45.8729C76.9545 45.7142 76.8278 45.5195 76.7499 45.3039C76.672 45.0883 76.6449 44.8576 76.6707 44.6298V14.8898C76.6432 14.6612 76.6691 14.4294 76.7463 14.2124C76.8234 13.9955 76.9498 13.7994 77.1155 13.6396C77.2812 13.4797 77.4816 13.3604 77.7011 13.2911C77.9207 13.2217 78.1533 13.2041 78.3807 13.2398H82.1208C82.3482 13.2041 82.5808 13.2217 82.8003 13.2911C83.0199 13.3604 83.2203 13.4797 83.386 13.6396C83.5517 13.7994 83.6781 13.9955 83.7552 14.2124C83.8324 14.4294 83.8582 14.6612 83.8307 14.8898V44.6698C83.8566 44.8976 83.8295 45.1283 83.7516 45.3439C83.6737 45.5595 83.547 45.7542 83.3816 45.9129C83.2161 46.0716 83.0163 46.19 82.7976 46.2588C82.5789 46.3276 82.3473 46.3451 82.1208 46.3098V46.2698ZM109.821 19.7898C109.636 20.0004 109.394 20.1538 109.125 20.2318C108.856 20.3097 108.57 20.309 108.301 20.2298C105.347 19.5763 102.325 19.2808 99.3008 19.3498C98.7971 19.3466 98.2988 19.4522 97.8397 19.6593C97.3807 19.8664 96.9717 20.1702 96.6407 20.5498C96.2465 20.9414 95.9367 21.4096 95.7303 21.9256C95.5239 22.4415 95.4254 22.9943 95.4408 23.5498V35.9998C95.4216 37.0822 95.8315 38.1283 96.5807 38.9098C96.9147 39.3063 97.3311 39.6252 97.8008 39.8446C98.2705 40.0639 98.7823 40.1783 99.3008 40.1798C102.306 40.2467 105.308 39.9478 108.241 39.2898C108.504 39.2009 108.787 39.1894 109.056 39.2568C109.326 39.3242 109.57 39.4675 109.761 39.6698C110.089 39.9923 110.291 40.4214 110.331 40.8798V43.4698C110.331 45.3698 106.664 46.3198 99.3307 46.3198C96.4521 46.414 93.6526 45.3683 91.5407 43.4098C90.4905 42.4866 89.6546 41.3451 89.0915 40.0652C88.5284 38.7853 88.2517 37.3978 88.2807 35.9998V23.5698C88.2512 22.189 88.519 20.818 89.0659 19.5498C89.6129 18.2816 90.4262 17.1459 91.4507 16.2198C93.5811 14.2424 96.3946 13.1672 99.3008 13.2198C106.634 13.2198 110.301 14.1698 110.301 16.0698V18.6698C110.283 19.1011 110.113 19.5123 109.821 19.8298V19.7898ZM150.711 44.7898C150.711 45.7898 150.211 46.2398 149.131 46.2398H145.261C144.838 46.2776 144.416 46.1649 144.068 45.9216C143.72 45.6782 143.47 45.3199 143.361 44.9098L139.821 33.6398H125.311L121.761 44.9998C121.664 45.405 121.425 45.7621 121.088 46.0062C120.75 46.2503 120.336 46.3651 119.921 46.3298H116.061C114.981 46.3298 114.471 45.8298 114.471 44.8798C114.456 44.7272 114.477 44.5732 114.531 44.4298L128.091 1.32977C128.2 0.917848 128.452 0.558094 128.802 0.314546C129.152 0.0709975 129.576 -0.040544 130.001 -0.000225301H135.201C135.623 -0.0380683 136.046 0.0746341 136.393 0.317986C136.741 0.561337 136.992 0.919688 137.101 1.32977L150.601 44.4098C150.672 44.5491 150.71 44.7032 150.711 44.8598V44.7898ZM132.591 10.5798L127.331 27.4298H137.851L132.591 10.5798ZM173.811 19.8298C173.626 20.0414 173.385 20.1955 173.116 20.2736C172.846 20.3516 172.56 20.3503 172.291 20.2698C169.337 19.6163 166.315 19.3208 163.291 19.3898C162.787 19.3866 162.289 19.4922 161.83 19.6993C161.371 19.9064 160.962 20.2102 160.631 20.5898C160.237 20.9814 159.927 21.4496 159.72 21.9656C159.514 22.4815 159.415 23.0343 159.431 23.5898V35.9998C159.412 37.0822 159.821 38.1283 160.571 38.9098C160.905 39.3063 161.321 39.6252 161.791 39.8446C162.26 40.0639 162.772 40.1783 163.291 40.1798C166.296 40.2467 169.298 39.9478 172.231 39.2898C172.494 39.2009 172.777 39.1894 173.046 39.2568C173.316 39.3242 173.56 39.4675 173.751 39.6698C174.079 39.9923 174.281 40.4214 174.321 40.8798V43.4698C174.321 45.3698 170.654 46.3198 163.321 46.3198C160.442 46.414 157.643 45.3683 155.531 43.4098C154.48 42.4866 153.645 41.3451 153.081 40.0652C152.518 38.7853 152.242 37.3978 152.271 35.9998V23.5698C152.241 22.189 152.509 20.818 153.056 19.5498C153.603 18.2816 154.416 17.1459 155.441 16.2198C157.571 14.2424 160.385 13.1672 163.291 13.2198C170.624 13.2198 174.291 14.1698 174.291 16.0698V18.6698C174.273 19.1011 174.103 19.5123 173.811 19.8298ZM192.501 46.1198L189.841 46.3098C188.41 46.445 186.968 46.2662 185.614 45.786C184.259 45.3059 183.026 44.5359 182.001 43.5298C180.956 42.5479 180.129 41.358 179.573 40.037C179.017 38.7159 178.743 37.2929 178.771 35.8598V6.58978C178.771 5.69978 179.531 5.06978 180.991 4.74977L183.991 4.36977C184.227 4.32735 184.469 4.33954 184.7 4.40541C184.93 4.47128 185.143 4.58908 185.321 4.74977C185.497 4.90897 185.639 5.10136 185.741 5.31588C185.842 5.5304 185.9 5.76282 185.911 5.99977V13.3498H192.441C192.668 13.3141 192.901 13.3317 193.12 13.4011C193.34 13.4704 193.54 13.5897 193.706 13.7496C193.872 13.9094 193.998 14.1055 194.075 14.3224C194.152 14.5394 194.178 14.7712 194.151 14.9998V17.9098C194.178 18.1384 194.152 18.3702 194.075 18.5871C193.998 18.804 193.872 19.0001 193.706 19.16C193.54 19.3198 193.34 19.4391 193.12 19.5085C192.901 19.5779 192.668 19.5954 192.441 19.5598H185.911V35.8598C185.894 36.4102 185.987 36.9585 186.182 37.4732C186.378 37.988 186.673 38.4592 187.051 38.8598C187.387 39.256 187.805 39.5747 188.277 39.7939C188.748 40.0131 189.261 40.1277 189.781 40.1298H192.441C192.667 40.0945 192.899 40.1119 193.118 40.1807C193.336 40.2496 193.536 40.3679 193.702 40.5266C193.867 40.6853 193.994 40.8801 194.072 41.0957C194.149 41.3113 194.177 41.542 194.151 41.7698V44.4998C194.164 44.7186 194.131 44.9379 194.052 45.1426C193.974 45.3474 193.852 45.5328 193.696 45.6865C193.539 45.8401 193.351 45.9583 193.145 46.0331C192.939 46.1078 192.719 46.1374 192.501 46.1198ZM204.001 9.26978H199.691C199.465 9.30199 199.234 9.28187 199.018 9.21096C198.801 9.14005 198.603 9.02026 198.44 8.86082C198.276 8.70138 198.152 8.50656 198.076 8.29138C198 8.07621 197.974 7.84643 198.001 7.61977V4.61977C197.979 4.39547 198.008 4.16914 198.086 3.9578C198.165 3.74647 198.29 3.55564 198.453 3.39969C198.615 3.24374 198.811 3.12673 199.026 3.05746C199.24 2.98818 199.468 2.96846 199.691 2.99977H204.001C204.228 2.96413 204.461 2.98168 204.68 3.05105C204.9 3.12042 205.1 3.23972 205.266 3.39958C205.432 3.55944 205.558 3.75552 205.635 3.97244C205.712 4.18935 205.738 4.42119 205.711 4.64978V7.64978C205.733 7.87601 205.704 8.10439 205.624 8.31743C205.545 8.53047 205.418 8.72253 205.253 8.87889C205.088 9.03524 204.889 9.15176 204.672 9.21951C204.455 9.28727 204.225 9.30446 204.001 9.26978ZM204.001 46.2698H200.261C200.034 46.3051 199.803 46.2876 199.584 46.2188C199.365 46.15 199.165 46.0316 199 45.8729C198.834 45.7142 198.708 45.5195 198.63 45.3039C198.552 45.0883 198.525 44.8576 198.551 44.6298V14.8898C198.523 14.6612 198.549 14.4294 198.626 14.2124C198.703 13.9955 198.83 13.7994 198.995 13.6396C199.161 13.4797 199.362 13.3604 199.581 13.2911C199.801 13.2217 200.033 13.2041 200.261 13.2398H204.001C204.228 13.2041 204.461 13.2217 204.68 13.2911C204.9 13.3604 205.1 13.4797 205.266 13.6396C205.432 13.7994 205.558 13.9955 205.635 14.2124C205.712 14.4294 205.738 14.6612 205.711 14.8898V44.6698C205.737 44.8976 205.709 45.1283 205.632 45.3439C205.554 45.5595 205.427 45.7542 205.262 45.9129C205.096 46.0716 204.896 46.19 204.678 46.2588C204.459 46.3276 204.227 46.3451 204.001 46.3098V46.2698ZM233.931 43.3598C231.79 45.3099 228.976 46.3531 226.081 46.2698H221.081C218.222 46.3525 215.445 45.3072 213.351 43.3598C212.311 42.4402 211.482 41.306 210.923 40.0354C210.364 38.7647 210.087 37.3879 210.111 35.9998V23.5698C210.081 22.189 210.349 20.818 210.896 19.5498C211.443 18.2816 212.256 17.1459 213.281 16.2198C215.411 14.2424 218.225 13.1672 221.131 13.2198H226.131C229.011 13.1249 231.812 14.1748 233.921 16.1398C234.966 17.0657 235.796 18.2085 236.354 19.4882C236.912 20.768 237.184 22.1541 237.151 23.5498V35.9998C237.173 37.3915 236.897 38.7719 236.341 40.0482C235.786 41.3245 234.964 42.4673 233.931 43.3998V43.3598ZM229.931 23.5298C229.948 22.4446 229.539 21.3961 228.791 20.6098C228.447 20.2254 228.029 19.9153 227.561 19.6986C227.093 19.4819 226.586 19.3632 226.071 19.3498H221.071C220.557 19.3399 220.048 19.4422 219.578 19.6495C219.108 19.8567 218.69 20.164 218.351 20.5498C217.595 21.3635 217.186 22.4396 217.211 23.5498V35.9998C217.192 37.0822 217.601 38.1283 218.351 38.9098C218.7 39.3033 219.128 39.6196 219.607 39.8383C220.085 40.057 220.604 40.1733 221.131 40.1798H226.131C226.634 40.1829 227.133 40.0773 227.592 39.8702C228.051 39.6631 228.46 39.3594 228.791 38.9798C229.184 38.5874 229.493 38.1191 229.7 37.6033C229.906 37.0875 230.005 36.5351 229.991 35.9798L229.931 23.5298ZM266.511 46.2698H262.771C262.544 46.3051 262.313 46.2876 262.094 46.2188C261.875 46.15 261.675 46.0316 261.51 45.8729C261.344 45.7142 261.218 45.5195 261.14 45.3039C261.062 45.0883 261.035 44.8576 261.061 44.6298V23.5698C261.078 22.4846 260.669 21.4361 259.921 20.6498C259.575 20.2651 259.155 19.9549 258.686 19.7383C258.216 19.5216 257.708 19.403 257.191 19.3898H252.251C251.737 19.3786 251.227 19.4802 250.757 19.6876C250.287 19.8949 249.869 20.2029 249.531 20.5898C249.131 20.978 248.817 21.4454 248.609 21.962C248.401 22.4786 248.302 23.033 248.321 23.5898L248.391 44.6898C248.391 45.7698 247.821 46.3298 246.611 46.3298H243.001C242.774 46.3651 242.543 46.3476 242.324 46.2788C242.105 46.21 241.905 46.0916 241.74 45.9329C241.574 45.7742 241.448 45.5795 241.37 45.3639C241.292 45.1483 241.265 44.9176 241.291 44.6898V23.5698C241.259 22.1808 241.525 20.8011 242.07 19.5232C242.615 18.2452 243.426 17.0985 244.451 16.1598C246.593 14.2036 249.411 13.1566 252.311 13.2398H257.251C260.135 13.1433 262.939 14.1933 265.051 16.1598C266.096 17.0857 266.926 18.2285 267.484 19.5082C268.042 20.788 268.314 22.1741 268.281 23.5698V44.6698C268.309 44.9025 268.281 45.1385 268.2 45.3586C268.12 45.5787 267.989 45.7767 267.817 45.9365C267.646 46.0963 267.439 46.2134 267.214 46.2782C266.988 46.3431 266.751 46.3539 266.521 46.3098L266.511 46.2698ZM290.581 43.5498C288.39 45.3945 285.594 46.3634 282.731 46.2698C275.397 46.2698 271.731 45.3198 271.731 43.4198V40.8698C271.761 40.4415 271.942 40.0377 272.241 39.7298C272.414 39.5041 272.655 39.339 272.928 39.2582C273.201 39.1774 273.492 39.1849 273.761 39.2798C276.714 39.9407 279.736 40.2395 282.761 40.1698C283.761 40.1881 284.731 39.8314 285.481 39.1698C285.852 38.8354 286.146 38.4244 286.343 37.9651C286.54 37.5058 286.635 37.0093 286.621 36.5098C286.603 36.0174 286.452 35.5389 286.185 35.1252C285.917 34.7114 285.543 34.3778 285.101 34.1598C284.911 34.0998 283.961 33.6598 282.251 32.8998C278.201 31.1198 275.851 29.9798 275.151 29.5398C274.072 28.8323 273.192 27.8612 272.594 26.7185C271.995 25.5758 271.698 24.2993 271.731 23.0098C271.686 21.6546 271.947 20.3068 272.496 19.067C273.045 17.8271 273.867 16.7274 274.901 15.8498C277.113 14.0424 279.905 13.0974 282.761 13.1898C289.981 13.1898 293.591 14.1398 293.591 16.0398V18.6398C293.561 19.068 293.38 19.4718 293.081 19.7798C292.897 19.9925 292.656 20.1473 292.386 20.2254C292.116 20.3035 291.829 20.3016 291.561 20.2198C288.674 19.5715 285.719 19.276 282.761 19.3398C281.744 19.2898 280.746 19.6295 279.971 20.2898C279.609 20.6401 279.324 21.0621 279.135 21.5287C278.945 21.9954 278.856 22.4964 278.871 22.9998C278.889 23.4834 279.033 23.9539 279.289 24.3644C279.545 24.775 279.904 25.1112 280.331 25.3398C281.256 25.8172 282.207 26.2412 283.181 26.6098C285.655 27.5453 288.049 28.679 290.341 29.9998C291.419 30.7057 292.298 31.675 292.897 32.816C293.495 33.9569 293.793 35.2318 293.761 36.5198C293.806 37.8619 293.544 39.1966 292.995 40.422C292.445 41.6473 291.623 42.7309 290.591 43.5898L290.581 43.5498Z" fill="#D83933"/>
</svg>
