<svg width="25" height="25" viewBox="0 0 25 25" fill="none" xmlns="http://www.w3.org/2000/svg">
<path d="M13.2892 3.45947L13.5508 7.20033C13.5681 7.44837 13.6833 7.67935 13.8709 7.84247C14.0586 8.0056 14.3034 8.0875 14.5514 8.07015L18.2923 7.80856" fill="#F0F4FF"/>
<path d="M17.272 20.0972L7.91983 20.7511C7.42376 20.7858 6.93422 20.622 6.55892 20.2958C6.18362 19.9695 5.95329 19.5076 5.9186 19.0115L5.00305 5.91847C4.96836 5.4224 5.13215 4.93287 5.4584 4.55756C5.78464 4.18226 6.24662 3.95193 6.74269 3.91724L13.2892 3.45947L18.2923 7.80856L19.0116 18.0959C19.0463 18.592 18.8825 19.0815 18.5563 19.4568C18.23 19.8322 17.7681 20.0625 17.272 20.0972Z" fill="#F0F4FF"/>
<path d="M13.2892 3.45947L13.5508 7.20033C13.5681 7.44837 13.6833 7.67935 13.8709 7.84247C14.0586 8.0056 14.3034 8.0875 14.5514 8.07015L18.2923 7.80856M13.2892 3.45947L6.74269 3.91724C6.24662 3.95193 5.78464 4.18226 5.4584 4.55756C5.13215 4.93287 4.96836 5.4224 5.00305 5.91847L5.9186 19.0115C5.95329 19.5076 6.18362 19.9695 6.55892 20.2958C6.93422 20.622 7.42376 20.7858 7.91983 20.7511L17.272 20.0972C17.7681 20.0625 18.23 19.8322 18.5563 19.4568C18.8825 19.0815 19.0463 18.592 19.0116 18.0959L18.2923 7.80856M13.2892 3.45947L18.2923 7.80856" stroke="#8DA4EF" stroke-width="1.33" stroke-linecap="round" stroke-linejoin="round"/>
</svg>
