<svg width="25" height="24" viewBox="0 0 25 24" fill="none" xmlns="http://www.w3.org/2000/svg">
<path d="M3.75628 7.91194C3.72159 7.41587 3.88539 6.92633 4.21163 6.55103C4.53788 6.17573 4.99985 5.9454 5.49592 5.91071L18.5889 4.99516C19.085 4.96047 19.5746 5.12426 19.9499 5.45051C20.3252 5.77675 20.5555 6.23873 20.5902 6.7348L21.2441 16.087C21.2788 16.583 21.115 17.0726 20.7888 17.4479C20.4625 17.8232 20.0006 18.0535 19.5045 18.0882L6.41147 19.0037C5.9154 19.0384 5.42587 18.8746 5.05057 18.5484C4.67527 18.2221 4.44494 17.7602 4.41025 17.2641L3.75628 7.91194Z" fill="#E8EFFD"/>
<path d="M8.62855 10.3906L9.56377 10.3252L9.82536 14.0661" fill="#E8EFFD"/>
<path d="M15.1751 9.93282L16.1103 9.86743L16.3719 13.6083" fill="#E8EFFD"/>
<path d="M12.4021 10.5966L12.4028 10.606L12.4021 10.5966Z" fill="#E8EFFD"/>
<path d="M12.5983 13.4023L12.599 13.4116L12.5983 13.4023Z" fill="#E8EFFD"/>
<path d="M8.62855 10.3906L9.56377 10.3252L9.82536 14.0661M15.1751 9.93282L16.1103 9.86743L16.3719 13.6083M12.4021 10.5966L12.4028 10.606M12.5983 13.4023L12.599 13.4116M3.75628 7.91194C3.72159 7.41587 3.88539 6.92633 4.21163 6.55103C4.53788 6.17573 4.99985 5.9454 5.49592 5.91071L18.5889 4.99516C19.085 4.96047 19.5746 5.12426 19.9499 5.45051C20.3252 5.77675 20.5555 6.23873 20.5902 6.7348L21.2441 16.087C21.2788 16.583 21.115 17.0726 20.7888 17.4479C20.4625 17.8232 20.0006 18.0535 19.5045 18.0882L6.41147 19.0037C5.9154 19.0384 5.42587 18.8746 5.05057 18.5484C4.67527 18.2221 4.44494 17.7602 4.41025 17.2641L3.75628 7.91194Z" stroke="currentColor" stroke-width="1.49625" stroke-linecap="round" stroke-linejoin="round"/>
</svg>
