<svg width="25" height="24" viewBox="0 0 25 24" fill="none" xmlns="http://www.w3.org/2000/svg">
<g clip-path="url(#clip0_39321_100605)">
<path d="M10.6518 4.4387C11.0177 3.18817 12.7418 3.06761 13.2782 4.25504L15.0487 8.17475C15.2173 8.54805 15.5406 8.82907 15.9337 8.9441L20.0617 10.1519C21.3122 10.5177 21.4328 12.2418 20.2453 12.7782L16.3256 14.5487C15.9523 14.7173 15.6713 15.0406 15.5563 15.4337L14.3485 19.5617C13.9826 20.8122 12.2585 20.9328 11.7222 19.7454L9.95166 15.8257C9.78304 15.4524 9.45976 15.1713 9.06662 15.0563L4.93866 13.8485C3.68814 13.4827 3.56757 11.7586 4.75501 11.2222L8.67471 9.4517C9.04801 9.28308 9.32903 8.9598 9.44406 8.56666L10.6518 4.4387Z" fill="currentFill" stroke="currentColor" stroke-width="1.5"/>
</g>
<defs>
<clipPath id="clip0_39321_100605">
<rect width="20.6124" height="20.6124" fill="white" transform="translate(1.5 2.43799) rotate(-4)"/>
</clipPath>
</defs>
</svg>
