<svg xmlns="http://www.w3.org/2000/svg" viewBox="60 90.4 570.02 539.67"><defs><linearGradient id="microsoft-outlook-2025-linear0" x1="9.989" x2="30.932" y1="22.365" y2="9.375" gradientTransform="scale(15)" gradientUnits="userSpaceOnUse"><stop offset="0" style="stop-color:#20a7fa;stop-opacity:1"/><stop offset=".4" style="stop-color:#3bd5ff;stop-opacity:1"/><stop offset="1" style="stop-color:#c4b0ff;stop-opacity:1"/></linearGradient><linearGradient id="microsoft-outlook-2025-linear1" x1="17.197" x2="28.856" y1="26.794" y2="8.126" gradientTransform="scale(15)" gradientUnits="userSpaceOnUse"><stop offset="0" style="stop-color:#165ad9;stop-opacity:1"/><stop offset=".501" style="stop-color:#1880e5;stop-opacity:1"/><stop offset="1" style="stop-color:#8587ff;stop-opacity:1"/></linearGradient><linearGradient id="microsoft-outlook-2025-linear2" x1="25.701" x2="12.756" y1="27.048" y2="16.501" gradientTransform="scale(15)" gradientUnits="userSpaceOnUse"><stop offset=".237" style="stop-color:#448aff;stop-opacity:0"/><stop offset=".792" style="stop-color:#0032b1;stop-opacity:.2"/></linearGradient><linearGradient id="microsoft-outlook-2025-linear3" x1="24.053" x2="44.51" y1="31.11" y2="18.018" gradientTransform="scale(15)" gradientUnits="userSpaceOnUse"><stop offset="0" style="stop-color:#1a43a6;stop-opacity:1"/><stop offset=".492" style="stop-color:#2052cb;stop-opacity:1"/><stop offset="1" style="stop-color:#5f20cb;stop-opacity:1"/></linearGradient><linearGradient id="microsoft-outlook-2025-linear4" x1="29.828" x2="17.397" y1="30.327" y2="19.571" gradientTransform="scale(15)" gradientUnits="userSpaceOnUse"><stop offset="0" style="stop-color:#0045b9;stop-opacity:0"/><stop offset=".67" style="stop-color:#0d1f69;stop-opacity:.2"/></linearGradient><linearGradient id="microsoft-outlook-2025-linear5" x1="41.998" x2="23.852" y1="29.943" y2="29.943" gradientTransform="scale(15)" gradientUnits="userSpaceOnUse"><stop offset="0" style="stop-color:#4dc4ff;stop-opacity:1"/><stop offset=".196" style="stop-color:#0fafff;stop-opacity:1"/></linearGradient><linearGradient id="microsoft-outlook-2025-linear6" x1="3.458" x2="20.929" y1="37.872" y2="37.86" gradientTransform="scale(15)" gradientUnits="userSpaceOnUse"><stop offset=".206" style="stop-color:#6ce0ff;stop-opacity:1"/><stop offset=".535" style="stop-color:#50d5ff;stop-opacity:0"/></linearGradient><radialGradient id="microsoft-outlook-2025-radial0" cx="0" cy="0" r="1" fx="0" fy="0" gradientTransform="matrix(0 -405.04051 438.393 0 359.92 102.475)" gradientUnits="userSpaceOnUse"><stop offset=".568" style="stop-color:#275ff0;stop-opacity:0"/><stop offset=".992" style="stop-color:#002177;stop-opacity:1"/></radialGradient><radialGradient id="microsoft-outlook-2025-radial1" cx="0" cy="0" r="1" fx="0" fy="0" gradientTransform="rotate(-45 897.061 -224.265)scale(173.58)" gradientUnits="userSpaceOnUse"><stop offset=".259" style="stop-color:#0060d1;stop-opacity:.4"/><stop offset=".908" style="stop-color:#0383f1;stop-opacity:0"/></radialGradient><radialGradient id="microsoft-outlook-2025-radial2" cx="0" cy="0" r="1" fx="0" fy="0" gradientTransform="matrix(357.40702 -468.44593 423.59457 323.18709 159.471 697.08)" gradientUnits="userSpaceOnUse"><stop offset=".732" style="stop-color:#f4a7f7;stop-opacity:0"/><stop offset="1" style="stop-color:#f4a7f7;stop-opacity:.501961"/></radialGradient><radialGradient id="microsoft-outlook-2025-radial3" cx="0" cy="0" r="1" fx="0" fy="0" gradientTransform="matrix(-170.86087 259.7254 -674.01813 -443.40415 278.562 412.979)" gradientUnits="userSpaceOnUse"><stop offset="0" style="stop-color:#49deff;stop-opacity:1"/><stop offset=".724" style="stop-color:#29c3ff;stop-opacity:1"/></radialGradient><radialGradient id="microsoft-outlook-2025-radial4" cx="0" cy="0" r="1" fx="0" fy="0" gradientTransform="rotate(46.924 -378.504 245.25)scale(315.927)" gradientUnits="userSpaceOnUse"><stop offset=".039" style="stop-color:#0091ff;stop-opacity:1"/><stop offset=".919" style="stop-color:#183dad;stop-opacity:1"/></radialGradient><radialGradient id="microsoft-outlook-2025-radial5" cx="0" cy="0" r="1" fx="0" fy="0" gradientTransform="matrix(0 168 -193.782 0 180 491.159)" gradientUnits="userSpaceOnUse"><stop offset=".558" style="stop-color:#0fa5f7;stop-opacity:0"/><stop offset="1" style="stop-color:#74c6ff;stop-opacity:.501961"/></radialGradient></defs><g id="microsoft-outlook-2025-surface1"><path d="m463.984 140.145-344.347 218.27-29.614-46.72v-40.257a43.26 43.26 0 0 1 19.72-36.293L309.91 105.258c30.496-19.79 69.777-19.793 100.277-.008Zm0 0" style="stroke:none;fill-rule:nonzero;fill:url(#microsoft-outlook-2025-linear0)"/><path d="M407.102 103.34a91 91 0 0 1 3.082 1.914l156.214 101.332-387.335 245.52-59.438-93.77L403.895 177.8c26.925-17.102 28.105-55.57 3.207-74.461m0 0" style="stroke:none;fill-rule:nonzero;fill:url(#microsoft-outlook-2025-linear1)"/><path d="M407.102 103.34a91 91 0 0 1 3.082 1.914l156.214 101.332-387.335 245.52-59.438-93.77L403.895 177.8c26.925-17.102 28.105-55.57 3.207-74.461m0 0" style="stroke:none;fill-rule:nonzero;fill:url(#microsoft-outlook-2025-linear2)"/><path d="M333.602 498.988 179.066 452.11 507.63 243.836c27.672-17.54 27.601-57.938-.133-75.379l-1.48-.93 4.261 2.649 99.996 64.867a43.26 43.26 0 0 1 19.723 36.3v38.962Zm0 0" style="stroke:none;fill-rule:nonzero;fill:url(#microsoft-outlook-2025-linear3)"/><path d="M333.602 498.988 179.066 452.11 507.63 243.836c27.672-17.54 27.601-57.938-.133-75.379l-1.48-.93 4.261 2.649 99.996 64.867a43.26 43.26 0 0 1 19.723 36.3v38.962Zm0 0" style="stroke:none;fill-rule:nonzero;fill:url(#microsoft-outlook-2025-linear4)"/><path d="M410.188 105.25c-30.5-19.785-69.782-19.781-100.282.008L109.742 235.145a43.26 43.26 0 0 0-19.719 36.292v1.97a44.48 44.48 0 0 0 20.735 36.16l248.887 156.91L609.16 309.805a44.47 44.47 0 0 0 20.824-37.664v38.168l.008-38.965a43.28 43.28 0 0 0-19.722-36.301Zm0 0" style="stroke:none;fill-rule:nonzero;fill:url(#microsoft-outlook-2025-radial0)"/><path d="M315.77 630.05h220.449c51.777 0 93.75-41.972 93.75-93.75V272.14a44.48 44.48 0 0 1-20.82 37.665l-327.907 205.89a60.71 60.71 0 0 0-28.422 51.414c.004 34.762 28.184 62.942 62.95 62.942m0 0" style="stroke:none;fill-rule:nonzero;fill:url(#microsoft-outlook-2025-linear5)"/><path d="M315.77 630.05h220.449c51.777 0 93.75-41.972 93.75-93.75V272.14a44.48 44.48 0 0 1-20.82 37.665l-327.907 205.89a60.71 60.71 0 0 0-28.422 51.414c.004 34.762 28.184 62.942 62.95 62.942m0 0" style="stroke:none;fill-rule:nonzero;fill:url(#microsoft-outlook-2025-radial1)"/><path d="M315.77 630.05h220.449c51.777 0 93.75-41.972 93.75-93.75V272.14a44.48 44.48 0 0 1-20.82 37.665l-327.907 205.89a60.71 60.71 0 0 0-28.422 51.414c.004 34.762 28.184 62.942 62.95 62.942m0 0" style="stroke:none;fill-rule:nonzero;fill:url(#microsoft-outlook-2025-radial2)"/><path d="M405.402 630.035H183.738c-51.777 0-93.75-41.972-93.75-93.75v-264.34a44.47 44.47 0 0 0 20.754 37.621l327.582 206.52a61.74 61.74 0 0 1 28.809 52.226c-.004 34.09-27.64 61.723-61.73 61.723m0 0" style="stroke:none;fill-rule:nonzero;fill:url(#microsoft-outlook-2025-radial3)"/><path d="M405.402 630.035H183.738c-51.777 0-93.75-41.972-93.75-93.75v-264.34a44.47 44.47 0 0 0 20.754 37.621l327.582 206.52a61.74 61.74 0 0 1 28.809 52.226c-.004 34.09-27.64 61.723-61.73 61.723m0 0" style="stroke:none;fill-rule:nonzero;fill:url(#microsoft-outlook-2025-linear6)"/><path d="M108.75 345h142.5c26.926 0 48.75 21.824 48.75 48.75v142.5c0 26.926-21.824 48.75-48.75 48.75h-142.5C81.824 585 60 563.176 60 536.25v-142.5C60 366.824 81.824 345 108.75 345m0 0" style="stroke:none;fill-rule:nonzero;fill:url(#microsoft-outlook-2025-radial4)"/><path d="M108.75 345h142.5c26.926 0 48.75 21.824 48.75 48.75v142.5c0 26.926-21.824 48.75-48.75 48.75h-142.5C81.824 585 60 563.176 60 536.25v-142.5C60 366.824 81.824 345 108.75 345m0 0" style="stroke:none;fill-rule:nonzero;fill:url(#microsoft-outlook-2025-radial5)"/><path d="M179.387 534q-29.77-.001-48.875-18.625-19.11-18.622-19.11-48.605c0-21.11 6.465-38.18 19.395-51.22Q150.195 396 181.594 396q29.67 0 48.297 18.715c12.484 12.476 18.726 28.93 18.726 49.351 0 20.985-6.469 37.899-19.398 50.75Q209.919 534 179.387 534m.574-26.352q16.225 0 26.117-11.082c6.594-7.386 9.89-17.664 9.89-30.824q-.001-20.577-9.6-32.031-9.605-11.454-25.638-11.453-16.518 0-26.597 11.824-10.083 11.736-10.082 31.102 0 19.652 10.082 31.101 10.078 11.362 25.828 11.363m0 0" style="stroke:none;fill-rule:nonzero;fill:#fff;fill-opacity:1"/><path d="M179.332 535.848q-29.655.001-48.691-19.13-19.034-19.131-19.036-49.929 0-32.525 19.325-52.61 19.324-20.09 50.601-20.09 29.555.001 48.114 19.227 18.654 19.23 18.652 50.7c0 21.55-6.442 38.93-19.32 52.129q-19.23 19.704-49.645 19.703m.57-27.067c10.778 0 19.453-3.797 26.02-11.383q9.853-11.384 9.851-31.664 0-21.138-9.562-32.902-9.567-11.766-25.54-11.766-16.457-.002-26.5 12.149c-6.694 8.031-10.042 18.683-10.042 31.945q0 20.185 10.043 31.95 10.043 11.67 25.73 11.671m0 0" style="stroke:none;fill-rule:nonzero;fill:#fff;fill-opacity:1"/></g></svg>
