<?xml version="1.0" encoding="UTF-8"?><svg id="Layer_2" xmlns="http://www.w3.org/2000/svg" xmlns:xlink="http://www.w3.org/1999/xlink" viewBox="0 0 108.29 90"><defs><style>.cls-1{fill:url(#linear-gradient);}</style><linearGradient id="linear-gradient" x1="2.67" y1="1.79" x2="100.03" y2="83.52" gradientUnits="userSpaceOnUse"><stop offset="0" stop-color="#fff"/><stop offset="1" stop-color="#d8daf0"/></linearGradient></defs><g id="Layer_1-2"><path id="Logo_-_Light" class="cls-1" d="m104.12,4.21c-2.68-2.69-6.33-4.21-10.13-4.21H14.29C6.4,0,0,6.4,0,14.29v61.41c0,7.89,6.4,14.29,14.29,14.29h79.43c7.87,0,14.26-6.36,14.29-14.23l.27-61.41c.02-3.8-1.48-7.45-4.16-10.15ZM13.41,27.79c0-7.43,6.03-13.46,13.46-13.46h25.91c.38,0,.73.23.89.58.15.35.09.76-.17,1.05l-5.68,6.17c-.99,1.07-2.38,1.69-3.84,1.69h-17.04c-2.23,0-4.04,1.81-4.04,4.04v10.18c0,1.31-1.06,2.37-2.37,2.37h-4.74c-1.31,0-2.37-1.06-2.37-2.37v-10.25Zm80.61,34.72c0,7.43-6.03,13.46-13.46,13.46h-11.01c-7.43,0-13.46-6.03-13.46-13.46v-19.27c0-1.31.49-2.57,1.38-3.54l6.42-6.97c.27-.29.69-.39,1.07-.25.37.15.62.5.62.9v29.07c0,2.23,1.81,4.04,4.04,4.04h10.88c2.23,0,4.04-1.81,4.04-4.04V27.85c0-2.23-1.81-4.04-4.04-4.04h-12.65c-1.45,0-2.83.61-3.82,1.67l-37.73,41h22.67c1.31,0,2.37,1.06,2.37,2.37v4.74c0,1.31-1.06,2.37-2.37,2.37h-30.55c-2.77,0-5.02-2.25-5.02-5.02v-2.51c0-1.26.47-2.47,1.33-3.4L57.04,19.09c2.8-3.04,6.73-4.76,10.86-4.76h12.66c7.43,0,13.46,6.03,13.46,13.46v34.72Z"/></g></svg>