<?xml version="1.0" encoding="UTF-8"?><svg id="Layer_2" xmlns="http://www.w3.org/2000/svg" viewBox="0 0 205.69 51.88"><defs><style>.cls-1{fill:#fff;}</style></defs><g id="Layer_1-2"><path id="Wordmark_-_Light" class="cls-1" d="m13.68,16.37v11.47c0,2.21,1.35,3.5,3.68,3.5h3.13v8.16h-4.48c-7.48,0-11.28-3.5-11.28-10.18v-12.94H0v-8.16h2.64c1.72,0,2.58-.86,2.58-2.58V0h8.46v8.22h6.81v8.16h-6.81Zm57.65,5.58l-6.25,17.54h-9.2l-6.07-20.36-6.07,20.36h-9.2l-11.1-31.28h10.18l5.7,19.75,6.07-19.75h9.14l6.01,19.75,2.39-7.97c1.35-4.84,2.21-8.46,1.59-11.77h9.2c.67,3.68-.37,7.97-2.39,13.74Zm38.51,4.78h-23.92c.98,3.5,3.74,5.7,7.54,5.7,2.94,0,5.4-1.23,6.56-2.88h9.57c-2.33,6.32-8.58,10.67-16.31,10.67-9.69,0-16.93-7.05-16.93-16.37s7.24-16.37,16.86-16.37,16.86,6.99,16.86,16.5c0,.8-.06,2.02-.25,2.76Zm-23.86-5.95h14.47c-.92-3.43-3.8-5.58-7.24-5.58s-6.19,2.15-7.24,5.58Zm62.8,10.06v8.65h-2.51c-6.32,0-9.57-3.13-9.57-9.2v-7.91c0-3.8-2.39-6.26-6.01-6.26-3.86,0-6.5,2.51-6.5,6.38v16.99h-8.95V8.22h8.95v3.43c2.39-2.76,5.64-4.17,9.51-4.17,7.17,0,11.96,4.72,11.96,11.9v8.95c0,1.59.92,2.51,2.51,2.51h.61Zm15.33-14.47v11.47c0,2.21,1.35,3.5,3.68,3.5h3.13v8.16h-4.48c-7.48,0-11.28-3.5-11.28-10.18v-12.94h-4.72v-8.16h2.64c1.72,0,2.58-.86,2.58-2.58V0h8.46v8.22h6.81v8.16h-6.81Zm41.58-8.16v29.37c0,8.65-6.07,14.29-14.78,14.29-7.54,0-12.94-4.23-14.66-11.04h9.2c1.04,1.78,3,2.88,5.27,2.88,3.5,0,6.01-2.39,6.01-6.19v-2.51c-2.27,2.7-5.4,4.17-9.08,4.17-6.93,0-11.53-4.72-11.53-11.84V8.22h8.95v16.43c0,3.56,2.21,5.83,5.58,5.83,3.62,0,6.07-2.33,6.07-5.95V8.22h8.95Z"/></g></svg>