<svg
  xmlns="http://www.w3.org/2000/svg"
  width="64"
  height="64"
  viewBox="0 0 64 64"
  fill="none"
  role="img"
>
  <title>Fireflies</title>
  <defs>
    <linearGradient id="fireflies-tl" x1="0" y1="0" x2="1" y2="1">
      <stop offset="0%" stop-color="#8E2A8B" />
      <stop offset="100%" stop-color="#D02D7E" />
    </linearGradient>
    <linearGradient id="fireflies-tr" x1="0" y1="0" x2="1" y2="1">
      <stop offset="0%" stop-color="#C2287D" />
      <stop offset="100%" stop-color="#E83C8E" />
    </linearGradient>
    <linearGradient id="fireflies-mid" x1="0" y1="0" x2="1" y2="1">
      <stop offset="0%" stop-color="#B0297B" />
      <stop offset="100%" stop-color="#D9357F" />
    </linearGradient>
    <linearGradient id="fireflies-bl" x1="0" y1="0" x2="1" y2="1">
      <stop offset="0%" stop-color="#7C1F6E" />
      <stop offset="100%" stop-color="#C8327F" />
    </linearGradient>
  </defs>
  <path
    fill="url(#fireflies-tl)"
    d="M4 12a8 8 0 0 1 8-8h14v22H4V12z"
  />
  <path
    fill="url(#fireflies-tr)"
    d="M30 4h22a8 8 0 0 1 8 8v14H30V4z"
  />
  <path
    fill="url(#fireflies-mid)"
    d="M30 30h18v18H30V30z"
  />
  <path
    fill="url(#fireflies-bl)"
    d="M4 30h22v22a8 8 0 0 1-8 8H4V30z"
  />
</svg>
