<svg width="16" height="16" viewBox="0 0 16 16" fill="none" xmlns="http://www.w3.org/2000/svg">
<rect width="16" height="16" rx="3.42857" fill="#1961ED"/>
<path fill-rule="evenodd" clip-rule="evenodd" d="M12.4041 4.74321C12.5112 4.85342 12.5714 5.00284 12.5714 5.15862C12.5714 5.3144 12.5112 5.4638 12.4041 5.57403L6.87133 11.2565C6.76401 11.3666 6.61854 11.4284 6.46687 11.4284C6.3152 11.4284 6.16972 11.3666 6.06241 11.2565L3.58221 8.70921C3.48111 8.59777 3.42607 8.45039 3.42868 8.29809C3.4313 8.1458 3.49136 8.0005 3.59623 7.89279C3.7011 7.78508 3.84257 7.72339 3.99085 7.7207C4.13913 7.71802 4.28263 7.77455 4.39113 7.87839L6.46687 10.0103L11.5952 4.74321C11.7025 4.63312 11.8479 4.57129 11.9996 4.57129C12.1513 4.57129 12.2968 4.63312 12.4041 4.74321Z" fill="white"/>
</svg>
