<svg width="48" height="48" viewBox="0 0 48 48" fill="none" xmlns="http://www.w3.org/2000/svg">
    <path d="M24 46C36.1503 46 46 36.1503 46 24C46 11.8497 36.1503 2 24 2C11.8497 2 2 11.8497 2 24C2 36.1503 11.8497 46 24 46Z"
          fill="#3F59E4"/>
    <path d="M15.9519 22.5198C19.6279 21.9132 22.5098 18.8699 23.1134 15.1879L23.316 13.4181C23.3661 13.1369 23.1756 12.7452 22.8206 12.7733C20.0431 12.9903 17.4219 13.9083 15.9639 14.5049C15.24 14.8022 14.7687 15.5052 14.7687 16.2887V22.0618C14.7687 22.4033 15.0755 22.6645 15.4124 22.6102L15.9519 22.5218V22.5198Z"
          fill="#CFD6F8"/>
    <path d="M24.8866 15.188C25.4922 18.87 28.3741 21.9133 32.0481 22.52L32.5876 22.6083C32.9245 22.6646 33.2313 22.4034 33.2313 22.06V16.2868C33.2313 15.5034 32.7601 14.8003 32.0361 14.503C30.5761 13.9044 27.957 12.9884 25.1794 12.7714C24.8224 12.7433 24.6399 13.139 24.682 13.4163L24.8846 15.186L24.8866 15.188Z"
          fill="#CFD6F8"/>
    <path d="M32.0453 24.1371C27.0216 25.1294 24.6892 28.474 24.6892 34.8056C24.6892 35.123 25.0041 35.344 25.2688 35.1672C27.5791 33.6064 32.663 29.5326 33.1864 24.4364C33.2065 23.7956 32.4063 24.0969 32.0453 24.1371Z"
          fill="#CFD6F8"/>
    <path d="M15.9538 24.1371C20.9775 25.1294 23.3098 28.474 23.3098 34.8056C23.3098 35.123 22.995 35.344 22.7302 35.1672C20.4199 33.6064 15.3361 29.5326 14.8126 24.4364C14.7926 23.7956 15.5928 24.0969 15.9538 24.1371Z"
          fill="#CFD6F8"/>
</svg>
