<svg width="24" height="24" viewBox="0 0 24 24" fill="none" xmlns="http://www.w3.org/2000/svg">
<g clip-path="url(#clip0_39321_100611)">
  <path d="M19.4164 11.2928C19.0726 9.66305 18.2024 8.19151 16.94 7.1049C15.6776 6.01828 14.093 5.37687 12.4302 5.27947C10.7674 5.18207 9.11868 5.63408 7.73805 6.56587C6.35741 7.49767 5.32144 8.85755 4.78971 10.4361M4.06051 6.72788L4.3221 10.4687L8.06297 10.2072M4.58364 14.209C4.92744 15.8388 5.79756 17.3103 7.05996 18.3969C8.32236 19.4835 9.90701 20.1249 11.5698 20.2223C13.2326 20.3197 14.8813 19.8677 16.2619 18.9359C17.6426 18.0041 18.6786 16.6443 19.2103 15.0658M19.9395 18.7739L19.6779 15.0331L15.937 15.2946" stroke="currentColor" stroke-width="1.95556" stroke-linecap="round" stroke-linejoin="round"/>
</g>
<defs>
  <clipPath id="clip0_39321_100611">
    <rect x="0.75" y="0.75" width="22.5" height="22.5" rx="2.25" fill="white"/>
  </clipPath>
</defs>
</svg>