<svg width="24" height="24" viewBox="0 0 24 24" fill="none" xmlns="http://www.w3.org/2000/svg">
<g clip-path="url(#clip0_39321_100611)">
  <path d="M16.1983 18.7851L21.8096 18.3927M18.8078 15.7832L19.2002 21.3945M6.97695 21.3095L6.84615 19.439C6.77677 18.4469 7.10436 17.4678 7.75686 16.7172C8.40935 15.9666 9.33329 15.506 10.3254 15.4366L14.0663 15.175M7.93182 8.08566C8.0012 9.0778 8.46186 10.0017 9.21247 10.6542C9.96307 11.3067 10.9421 11.6343 11.9343 11.5649C12.9264 11.4956 13.8504 11.0349 14.5029 10.2843C15.1553 9.53369 15.4829 8.55462 15.4136 7.56248C15.3442 6.57035 14.8835 5.6464 14.1329 4.99391C13.3823 4.34142 12.4032 4.01383 11.4111 4.08321C10.419 4.15258 9.49502 4.61324 8.84253 5.36385C8.19004 6.11445 7.86245 7.09352 7.93182 8.08566Z" stroke="currentColor" stroke-width="1.95556" stroke-linecap="round" stroke-linejoin="round"/>
</g>
<defs>
  <clipPath id="clip0_39321_100611">
    <rect x="0.75" y="0.75" width="22.5" height="22.5" rx="2.25" fill="white"/>
  </clipPath>
</defs>
</svg>