<svg width="24" height="24" viewBox="0 0 24 24" fill="none" xmlns="http://www.w3.org/2000/svg">
<g clip-path="url(#clip0_39321_100611)">
  <path d="M4.17128 21.5058L4.04049 19.6353C3.97111 18.6432 4.2987 17.6641 4.95119 16.9135C5.60368 16.1629 6.52763 15.7023 7.51977 15.6329L11.2606 15.3713C12.2528 15.3019 13.2318 15.6295 13.9824 16.282C14.733 16.9345 15.1937 17.8584 15.2631 18.8506L15.3939 20.721M15.1605 3.9433C15.9795 4.09306 16.7255 4.51117 17.2807 5.13171C17.8359 5.75225 18.1688 6.53993 18.2269 7.37056C18.2849 8.20119 18.0649 9.02753 17.6015 9.7193C17.138 10.4111 16.4575 10.9289 15.6673 11.1912M21.0052 20.3286L20.8744 18.4582C20.8119 17.6329 20.4781 16.8514 19.9251 16.2356C19.3721 15.6198 18.6308 15.2043 17.817 15.0538M5.12616 8.28195C5.19554 9.27409 5.6562 10.198 6.4068 10.8505C7.15741 11.503 8.13647 11.8306 9.12861 11.7612C10.1208 11.6918 11.0447 11.2312 11.6972 10.4806C12.3497 9.72998 12.6773 8.75091 12.6079 7.75877C12.5385 6.76663 12.0779 5.84269 11.3272 5.1902C10.5766 4.53771 9.59758 4.21012 8.60544 4.27949C7.6133 4.34887 6.68936 4.80953 6.03686 5.56014C5.38437 6.31074 5.05678 7.28981 5.12616 8.28195Z" stroke="currentColor" stroke-width="1.95556" stroke-linecap="round" stroke-linejoin="round"/>
</g>
<defs>
  <clipPath id="clip0_39321_100611">
    <rect x="0.75" y="0.75" width="22.5" height="22.5" rx="2.25" fill="white"/>
  </clipPath>
</defs>
</svg>