<svg width="24" height="24" viewBox="0 0 24 24" fill="none" xmlns="http://www.w3.org/2000/svg">
<g clip-path="url(#clip0_39321_100611)">
  <path d="M7.93181 8.08576L7.80102 6.21532C7.76633 5.71925 7.93012 5.22972 8.25637 4.85442C8.58261 4.47912 9.04459 4.24879 9.54065 4.2141L13.2815 3.95251C13.7776 3.91782 14.2671 4.08162 14.6424 4.40786C15.0177 4.73411 15.2481 5.19608 15.2827 5.69215L15.4135 7.56258M11.9997 12.5003L12.0003 12.5096M3.64811 14.024C6.35083 15.157 9.28151 15.6407 12.205 15.4363C15.1284 15.2319 17.9633 14.345 20.482 12.8469M3.38652 10.2832C3.35183 9.7871 3.51563 9.29757 3.84187 8.92227C4.16812 8.54697 4.63009 8.31664 5.12616 8.28195L18.2192 7.36639C18.7153 7.3317 19.2048 7.4955 19.5801 7.82175C19.9554 8.14799 20.1857 8.60996 20.2204 9.10603L20.809 17.523C20.8437 18.019 20.6799 18.5086 20.3536 18.8839C20.0274 19.2592 19.5654 19.4895 19.0693 19.5242L5.97632 20.4398C5.48025 20.4744 4.99072 20.3107 4.61541 19.9844C4.24011 19.6582 4.00978 19.1962 3.97509 18.7001L3.38652 10.2832Z" stroke="currentColor" stroke-width="1.95556" stroke-linecap="round" stroke-linejoin="round"/>
</g>
<defs>
  <clipPath id="clip0_39321_100611">
    <rect x="0.75" y="0.75" width="22.5" height="22.5" rx="2.25" fill="white"/>
  </clipPath>
</defs>
</svg>