<svg width="24" height="24" viewBox="0 0 24 24" fill="none" xmlns="http://www.w3.org/2000/svg">
<g clip-path="url(#clip0_39321_100611)">
 <path d="M11.1171 12.882C11.1518 13.3781 11.3821 13.8401 11.7574 14.1663C12.1327 14.4926 12.6223 14.6564 13.1183 14.6217C13.6144 14.587 14.0764 14.3567 14.4026 13.9814C14.7289 13.6061 14.8927 13.1165 14.858 12.6204C14.8233 12.1244 14.593 11.6624 14.2177 11.3362C13.8424 11.0099 13.3528 10.8461 12.8568 10.8808C12.3607 10.9155 11.8987 11.1458 11.5725 11.5211C11.2462 11.8964 11.0824 12.386 11.1171 12.882Z" stroke="currentColor" stroke-width="1.95556" stroke-linecap="round" stroke-linejoin="round"/>
 <path d="M21.4045 12.1627C19.4216 16.0605 16.7467 18.1271 13.3799 18.3625C10.0132 18.598 7.07671 16.9237 4.5706 13.3398C6.55354 9.442 9.22839 7.37537 12.5952 7.13995C15.9619 6.90452 18.8984 8.57876 21.4045 12.1627Z" stroke="currentColor" stroke-width="1.95556" stroke-linecap="round" stroke-linejoin="round"/>
</g>
<defs>
 <clipPath id="clip0_39321_100611">
   <rect x="0.75" y="0.75" width="22.5" height="22.5" rx="2.25" fill="white"/>
 </clipPath>
</defs>
</svg>