<svg width="24" height="24" viewBox="0 0 24 24" fill="none" xmlns="http://www.w3.org/2000/svg">
<g clip-path="url(#clip0_39321_100611)">
  <path d="M6.70262 16.9485L6.71197 16.9479M17.402 8.68204C17.8981 8.64735 18.3876 8.81114 18.7629 9.13739C19.1382 9.46363 19.3686 9.92561 19.4033 10.4217L19.6649 14.1625C19.6995 14.6586 19.5357 15.1481 19.2095 15.5234C18.8833 15.8987 18.4213 16.1291 17.9252 16.1638C17.4291 16.1985 16.9396 16.0347 16.5643 15.7084C16.189 15.3822 15.9587 14.9202 15.924 14.4241L15.6624 10.6833C15.6277 10.1872 15.7915 9.69766 16.1178 9.32236C16.444 8.94706 16.906 8.71673 17.402 8.68204ZM10.8555 9.13981C11.3516 9.10512 11.8411 9.26892 12.2164 9.59517C12.5917 9.92141 12.8221 10.3834 12.8568 10.8795L13.1183 14.6203C13.153 15.1164 12.9892 15.6059 12.663 15.9812C12.3367 16.3565 11.8748 16.5869 11.3787 16.6215C10.8826 16.6562 10.3931 16.4924 10.0178 16.1662C9.64249 15.8399 9.41216 15.378 9.37747 14.8819L9.11589 11.141C9.0812 10.645 9.24499 10.1554 9.57124 9.78014C9.89748 9.40483 10.3595 9.1745 10.8555 9.13981Z" stroke="currentColor" stroke-width="1.95556" stroke-linecap="round" stroke-linejoin="round"/>
</g>
<defs>
  <clipPath id="clip0_39321_100611">
    <rect x="0.75" y="0.75" width="22.5" height="22.5" rx="2.25" fill="white"/>
  </clipPath>
</defs>
</svg>