<svg width="24" height="24" viewBox="0 0 24 24" fill="none" xmlns="http://www.w3.org/2000/svg">
<g clip-path="url(#clip0_39321_100611)">
  <path d="M17.1214 8.70189C16.8983 8.18673 16.5262 7.75012 16.0529 7.44825C15.5796 7.14638 15.0267 6.99306 14.4655 7.00803L10.7247 7.26962C9.98057 7.32165 9.28762 7.66714 8.79825 8.2301C8.30888 8.79305 8.06319 9.52735 8.11522 10.2715C8.16725 11.0156 8.51275 11.7085 9.0757 12.1979C9.63866 12.6873 10.373 12.9329 11.1171 12.8809L14.8579 12.6193C15.602 12.5673 16.3363 12.813 16.8993 13.3024C17.4622 13.7917 17.8077 14.4847 17.8598 15.2288C17.9118 15.9729 17.6661 16.7072 17.1767 17.2701C16.6874 17.8331 15.9944 18.1786 15.2503 18.2306L11.5094 18.4922C10.9483 18.5072 10.3954 18.3539 9.92211 18.052C9.44879 17.7501 9.07665 17.3135 8.85356 16.7983M12.3989 4.33317L12.5951 7.13882M13.3799 18.3614L13.5761 21.1671" stroke="currentColor" stroke-width="1.95556" stroke-linecap="round" stroke-linejoin="round"/>
</g>
<defs>
  <clipPath id="clip0_39321_100611">
    <rect x="0.75" y="0.75" width="22.5" height="22.5" rx="2.25" fill="white"/>
  </clipPath>
</defs>
</svg>