<svg width="25" height="24" viewBox="0 0 25 24" fill="none" xmlns="http://www.w3.org/2000/svg">
<path d="M8.23485 6.65934L5.58444 6.84467C5.08217 6.87979 4.61443 7.113 4.2841 7.493C3.95378 7.87299 3.78794 8.36864 3.82306 8.87091L4.00839 11.5213C4.04351 12.0235 4.27639 12.4912 4.65662 12.8218L10.7764 18.1416C10.9645 18.3052 11.1831 18.4301 11.4195 18.5092C11.656 18.5883 11.9057 18.6201 12.1544 18.6027C12.4031 18.5853 12.646 18.5191 12.8691 18.4079C13.0922 18.2966 13.2913 18.1425 13.4548 17.9543L15.9199 15.1185C16.0835 14.9304 16.2084 14.7118 16.2875 14.4754C16.3667 14.239 16.3984 13.9892 16.381 13.7405C16.3636 13.4918 16.2974 13.2489 16.1862 13.0258C16.0749 12.8027 15.9208 12.6037 15.7326 12.4401L9.61192 7.12034C9.23213 6.79024 8.73683 6.62443 8.23485 6.65934Z" fill="#E8EFFD"/>
<path d="M18.1301 17.6281L20.5952 14.7923C20.7587 14.6042 20.8837 14.3856 20.9628 14.1492C21.0419 13.9127 21.0737 13.663 21.0563 13.4143C21.0389 13.1656 20.9727 12.9227 20.8614 12.6996C20.7502 12.4765 20.596 12.2774 20.4079 12.1139L13.2866 5.9243" fill="none"/>
<path d="M6.69086 9.58667L6.68151 9.58732L6.69086 9.58667Z" fill="#E8EFFD"/>
<path d="M18.1301 17.6281L20.5952 14.7923C20.7587 14.6042 20.8837 14.3856 20.9628 14.1492C21.0419 13.9127 21.0737 13.663 21.0563 13.4143C21.0389 13.1656 20.9727 12.9227 20.8614 12.6996C20.7502 12.4765 20.596 12.2774 20.4079 12.1139L13.2866 5.9243M6.69086 9.58667L6.68151 9.58732M8.23485 6.65934L5.58444 6.84467C5.08217 6.87979 4.61443 7.113 4.2841 7.493C3.95378 7.87299 3.78794 8.36864 3.82306 8.87091L4.00839 11.5213C4.04351 12.0235 4.27639 12.4912 4.65662 12.8218L10.7764 18.1416C10.9645 18.3052 11.1831 18.4301 11.4195 18.5092C11.656 18.5883 11.9057 18.6201 12.1544 18.6027C12.4031 18.5853 12.646 18.5191 12.8691 18.4079C13.0922 18.2966 13.2913 18.1425 13.4548 17.9543L15.9199 15.1185C16.0835 14.9304 16.2084 14.7118 16.2875 14.4754C16.3667 14.239 16.3984 13.9892 16.381 13.7405C16.3636 13.4918 16.2974 13.2489 16.1862 13.0258C16.0749 12.8027 15.9208 12.6037 15.7326 12.4401L9.61192 7.12034C9.23213 6.79024 8.73683 6.62443 8.23485 6.65934Z" stroke="currentColor" stroke-width="1.49625" stroke-linecap="round" stroke-linejoin="round"/>
</svg>
