<svg width="24" height="24" viewBox="0 0 24 24" fill="none" xmlns="http://www.w3.org/2000/svg">
<g clip-path="url(#clip0_39321_100611)">
  <path d="M9.39056 15.5019L14.6095 9.49822M10.6724 6.95445L11.0704 6.42289C11.8861 5.48463 13.0412 4.90885 14.2814 4.82222C15.5217 4.73558 16.7456 5.14518 17.6838 5.96091C18.6221 6.77664 19.1978 7.93168 19.2845 9.17193C19.3711 10.4122 18.9615 11.6361 18.1458 12.5743L17.6767 13.0432M13.3278 18.046L12.9914 18.5713C12.1655 19.5108 11.0024 20.0866 9.75451 20.1739C8.50667 20.2611 7.27475 19.8528 6.3261 19.0374C5.85852 18.6355 5.4753 18.1449 5.19864 17.5939C4.92199 17.0429 4.75739 16.4425 4.71438 15.8275C4.67137 15.2124 4.75081 14.595 4.94809 14.0108C5.14537 13.4267 5.45658 12.8875 5.86368 12.4245L6.32346 11.9572" stroke="currentColor" stroke-width="1.95556" stroke-linecap="round" stroke-linejoin="round"/>
</g>
<defs>
  <clipPath id="clip0_39321_100611">
    <rect x="0.75" y="0.75" width="22.5" height="22.5" rx="2.25" fill="white"/>
  </clipPath>
</defs>
</svg>