<svg width="24" height="24" viewBox="0 0 24 24" fill="none" xmlns="http://www.w3.org/2000/svg">
	<path d="M10.4673 3.06709C10.9938 1.64431 13.0062 1.6443 13.5327 3.06709L15.2708 7.76367C15.4364 8.21097 15.789 8.56364 16.2363 8.72917L20.9329 10.4673C22.3557 10.9938 22.3557 13.0062 20.9329 13.5327L16.2363 15.2708C15.789 15.4364 15.4364 15.789 15.2708 16.2363L13.5327 20.9329C13.0062 22.3557 10.9938 22.3557 10.4673 20.9329L8.72917 16.2363C8.56364 15.789 8.21097 15.4364 7.76367 15.2708L3.06709 13.5327C1.64431 13.0062 1.6443 10.9938 3.06709 10.4673L7.76367 8.72917C8.21097 8.56364 8.56364 8.21097 8.72917 7.76367L10.4673 3.06709Z" stroke="currentColor" />
</svg>
